<svg xmlns="http://www.w3.org/2000/svg" xmlns:xlink="http://www.w3.org/1999/xlink" contentStyleType="text/css" data-diagram-type="SEQUENCE" height="568px" preserveAspectRatio="none" style="width:1172px;height:568px;background:#FFFFFF;" version="1.1" viewBox="0 0 1172 568" width="1172px" zoomAndPan="magnify"><title>Add Product</title><defs/><g><text fill="#000000" font-family="sans-serif" font-size="14" font-weight="bold" lengthAdjust="spacing" textLength="97.5146" x="539.1489" y="27.9951">Add Product</text><g><title>API</title><rect fill="#FFFFFF" height="320.4609" style="stroke:#181818;stroke-width:1;" width="10" x="301.2456" y="149.7266"/></g><g><title>ProductController</title><rect fill="#FFFFFF" height="262.1953" style="stroke:#181818;stroke-width:1;" width="10" x="507.8765" y="178.8594"/></g><g><title>ProductService</title><rect fill="#FFFFFF" height="203.9297" style="stroke:#181818;stroke-width:1;" width="10" x="655.5078" y="207.9922"/></g><g><title>ProductMapper</title><rect fill="#FFFFFF" height="29.1328" style="stroke:#181818;stroke-width:1;" width="10" x="823.7119" y="237.125"/></g><g><title>ProductRepository</title><rect fill="#FFFFFF" height="87.3984" style="stroke:#181818;stroke-width:1;" width="10" x="957.3584" y="295.3906"/></g><g><title>Database</title><rect fill="#FFFFFF" height="29.1328" style="stroke:#181818;stroke-width:1;" width="10" x="1130.4121" y="324.5234"/></g><g><title>User</title><rect fill="#000000" fill-opacity="0.00000" height="369.5938" width="8" x="19.9551" y="118.5938"/><line style="stroke:#181818;stroke-width:0.5;stroke-dasharray:5.0,5.0;" x1="23" x2="23" y1="118.5938" y2="488.1875"/></g><g><title>API</title><rect fill="#000000" fill-opacity="0.00000" height="369.5938" width="8" x="302.2456" y="118.5938"/><line style="stroke:#181818;stroke-width:0.5;stroke-dasharray:5.0,5.0;" x1="306.1714" x2="306.1714" y1="118.5938" y2="488.1875"/></g><g><title>ProductController</title><rect fill="#000000" fill-opacity="0.00000" height="369.5938" width="8" x="508.8765" y="118.5938"/><line style="stroke:#181818;stroke-width:0.5;stroke-dasharray:5.0,5.0;" x1="512.4351" x2="512.4351" y1="118.5938" y2="488.1875"/></g><g><title>ProductService</title><rect fill="#000000" fill-opacity="0.00000" height="369.5938" width="8" x="656.5078" y="118.5938"/><line style="stroke:#181818;stroke-width:0.5;stroke-dasharray:5.0,5.0;" x1="659.7822" x2="659.7822" y1="118.5938" y2="488.1875"/></g><g><title>ProductMapper</title><rect fill="#000000" fill-opacity="0.00000" height="369.5938" width="8" x="824.7119" y="118.5938"/><line style="stroke:#181818;stroke-width:0.5;stroke-dasharray:5.0,5.0;" x1="828.4565" x2="828.4565" y1="118.5938" y2="488.1875"/></g><g><title>ProductRepository</title><rect fill="#000000" fill-opacity="0.00000" height="369.5938" width="8" x="958.3584" y="118.5938"/><line style="stroke:#181818;stroke-width:0.5;stroke-dasharray:5.0,5.0;" x1="961.9673" x2="961.9673" y1="118.5938" y2="488.1875"/></g><g><title>Database</title><rect fill="#000000" fill-opacity="0.00000" height="369.5938" width="8" x="1131.4121" y="118.5938"/><line style="stroke:#181818;stroke-width:0.5;stroke-dasharray:5.0,5.0;" x1="1135.0117" x2="1135.0117" y1="118.5938" y2="488.1875"/></g><g class="participant participant-head" data-participant="User"><text fill="#000000" font-family="sans-serif" font-size="14" lengthAdjust="spacing" textLength="31.9102" x="5" y="115.292">User</text><ellipse cx="23.9551" cy="50.7969" fill="#E2E2F0" rx="8" ry="8" style="stroke:#181818;stroke-width:0.5;"/><path d="M23.9551,58.7969 L23.9551,85.7969 M10.9551,66.7969 L36.9551,66.7969 M23.9551,85.7969 L10.9551,100.7969 M23.9551,85.7969 L36.9551,100.7969" fill="none" style="stroke:#181818;stroke-width:0.5;"/></g><g class="participant participant-tail" data-participant="User"><text fill="#000000" font-family="sans-serif" font-size="14" lengthAdjust="spacing" textLength="31.9102" x="5" y="500.1826">User</text><ellipse cx="23.9551" cy="511.9844" fill="#E2E2F0" rx="8" ry="8" style="stroke:#181818;stroke-width:0.5;"/><path d="M23.9551,519.9844 L23.9551,546.9844 M10.9551,527.9844 L36.9551,527.9844 M23.9551,546.9844 L10.9551,561.9844 M23.9551,546.9844 L36.9551,561.9844" fill="none" style="stroke:#181818;stroke-width:0.5;"/></g><g class="participant participant-head" data-participant="API"><rect fill="#E2E2F0" height="30.2969" rx="2.5" ry="2.5" style="stroke:#181818;stroke-width:0.5;" width="36.1484" x="288.1714" y="87.2969"/><text fill="#000000" font-family="sans-serif" font-size="14" lengthAdjust="spacing" textLength="22.1484" x="295.1714" y="107.292">API</text></g><g class="participant participant-tail" data-participant="API"><rect fill="#E2E2F0" height="30.2969" rx="2.5" ry="2.5" style="stroke:#181818;stroke-width:0.5;" width="36.1484" x="288.1714" y="487.1875"/><text fill="#000000" font-family="sans-serif" font-size="14" lengthAdjust="spacing" textLength="22.1484" x="295.1714" y="507.1826">API</text></g><g class="participant participant-head" data-participant="ProductController"><text fill="#000000" font-family="sans-serif" font-size="14" lengthAdjust="spacing" textLength="122.8828" x="448.4351" y="115.292">ProductController</text><ellipse cx="512.8765" cy="86.2969" fill="#E2E2F0" rx="12" ry="12" style="stroke:#181818;stroke-width:0.5;"/><polygon fill="#181818" points="508.8765,74.2969,514.8765,69.2969,512.8765,74.2969,514.8765,79.2969,508.8765,74.2969" style="stroke:#181818;stroke-width:1;"/></g><g class="participant participant-tail" data-participant="ProductController"><text fill="#000000" font-family="sans-serif" font-size="14" lengthAdjust="spacing" textLength="122.8828" x="448.4351" y="500.1826">ProductController</text><ellipse cx="512.8765" cy="519.4844" fill="#E2E2F0" rx="12" ry="12" style="stroke:#181818;stroke-width:0.5;"/><polygon fill="#181818" points="508.8765,507.4844,514.8765,502.4844,512.8765,507.4844,514.8765,512.4844,508.8765,507.4844" style="stroke:#181818;stroke-width:1;"/></g><g class="participant participant-head" data-participant="ProductService"><text fill="#000000" font-family="sans-serif" font-size="14" lengthAdjust="spacing" textLength="105.4512" x="604.7822" y="115.292">ProductService</text><ellipse cx="660.5078" cy="86.2969" fill="#E2E2F0" rx="12" ry="12" style="stroke:#181818;stroke-width:0.5;"/><polygon fill="#181818" points="656.5078,74.2969,662.5078,69.2969,660.5078,74.2969,662.5078,79.2969,656.5078,74.2969" style="stroke:#181818;stroke-width:1;"/></g><g class="participant participant-tail" data-participant="ProductService"><text fill="#000000" font-family="sans-serif" font-size="14" lengthAdjust="spacing" textLength="105.4512" x="604.7822" y="500.1826">ProductService</text><ellipse cx="660.5078" cy="519.4844" fill="#E2E2F0" rx="12" ry="12" style="stroke:#181818;stroke-width:0.5;"/><polygon fill="#181818" points="656.5078,507.4844,662.5078,502.4844,660.5078,507.4844,662.5078,512.4844,656.5078,507.4844" style="stroke:#181818;stroke-width:1;"/></g><g class="participant participant-head" data-participant="ProductMapper"><text fill="#000000" font-family="sans-serif" font-size="14" lengthAdjust="spacing" textLength="106.5107" x="772.4565" y="115.292">ProductMapper</text><ellipse cx="828.7119" cy="86.2969" fill="#E2E2F0" rx="12" ry="12" style="stroke:#181818;stroke-width:0.5;"/><polygon fill="#181818" points="824.7119,74.2969,830.7119,69.2969,828.7119,74.2969,830.7119,79.2969,824.7119,74.2969" style="stroke:#181818;stroke-width:1;"/></g><g class="participant participant-tail" data-participant="ProductMapper"><text fill="#000000" font-family="sans-serif" font-size="14" lengthAdjust="spacing" textLength="106.5107" x="772.4565" y="500.1826">ProductMapper</text><ellipse cx="828.7119" cy="519.4844" fill="#E2E2F0" rx="12" ry="12" style="stroke:#181818;stroke-width:0.5;"/><polygon fill="#181818" points="824.7119,507.4844,830.7119,502.4844,828.7119,507.4844,830.7119,512.4844,824.7119,507.4844" style="stroke:#181818;stroke-width:1;"/></g><g class="participant participant-head" data-participant="Repo"><text fill="#000000" font-family="sans-serif" font-size="14" lengthAdjust="spacing" textLength="128.7822" x="894.9673" y="115.292">ProductRepository</text><path d="M944.3584,66.2969 C944.3584,56.2969 962.3584,56.2969 962.3584,56.2969 C962.3584,56.2969 980.3584,56.2969 980.3584,66.2969 L980.3584,92.2969 C980.3584,102.2969 962.3584,102.2969 962.3584,102.2969 C962.3584,102.2969 944.3584,102.2969 944.3584,92.2969 L944.3584,66.2969" fill="#E2E2F0" style="stroke:#181818;stroke-width:1.5;"/><path d="M944.3584,66.2969 C944.3584,76.2969 962.3584,76.2969 962.3584,76.2969 C962.3584,76.2969 980.3584,76.2969 980.3584,66.2969" fill="none" style="stroke:#181818;stroke-width:1.5;"/></g><g class="participant participant-tail" data-participant="Repo"><text fill="#000000" font-family="sans-serif" font-size="14" lengthAdjust="spacing" textLength="128.7822" x="894.9673" y="500.1826">ProductRepository</text><path d="M944.3584,513.4844 C944.3584,503.4844 962.3584,503.4844 962.3584,503.4844 C962.3584,503.4844 980.3584,503.4844 980.3584,513.4844 L980.3584,539.4844 C980.3584,549.4844 962.3584,549.4844 962.3584,549.4844 C962.3584,549.4844 944.3584,549.4844 944.3584,539.4844 L944.3584,513.4844" fill="#E2E2F0" style="stroke:#181818;stroke-width:1.5;"/><path d="M944.3584,513.4844 C944.3584,523.4844 962.3584,523.4844 962.3584,523.4844 C962.3584,523.4844 980.3584,523.4844 980.3584,513.4844" fill="none" style="stroke:#181818;stroke-width:1.5;"/></g><g class="participant participant-head" data-participant="Database"><text fill="#000000" font-family="sans-serif" font-size="14" lengthAdjust="spacing" textLength="66.8008" x="1099.0117" y="115.292">Database</text><path d="M1117.4121,66.2969 C1117.4121,56.2969 1135.4121,56.2969 1135.4121,56.2969 C1135.4121,56.2969 1153.4121,56.2969 1153.4121,66.2969 L1153.4121,92.2969 C1153.4121,102.2969 1135.4121,102.2969 1135.4121,102.2969 C1135.4121,102.2969 1117.4121,102.2969 1117.4121,92.2969 L1117.4121,66.2969" fill="#E2E2F0" style="stroke:#181818;stroke-width:1.5;"/><path d="M1117.4121,66.2969 C1117.4121,76.2969 1135.4121,76.2969 1135.4121,76.2969 C1135.4121,76.2969 1153.4121,76.2969 1153.4121,66.2969" fill="none" style="stroke:#181818;stroke-width:1.5;"/></g><g class="participant participant-tail" data-participant="Database"><text fill="#000000" font-family="sans-serif" font-size="14" lengthAdjust="spacing" textLength="66.8008" x="1099.0117" y="500.1826">Database</text><path d="M1117.4121,513.4844 C1117.4121,503.4844 1135.4121,503.4844 1135.4121,503.4844 C1135.4121,503.4844 1153.4121,503.4844 1153.4121,513.4844 L1153.4121,539.4844 C1153.4121,549.4844 1135.4121,549.4844 1135.4121,549.4844 C1135.4121,549.4844 1117.4121,549.4844 1117.4121,539.4844 L1117.4121,513.4844" fill="#E2E2F0" style="stroke:#181818;stroke-width:1.5;"/><path d="M1117.4121,513.4844 C1117.4121,523.4844 1135.4121,523.4844 1135.4121,523.4844 C1135.4121,523.4844 1153.4121,523.4844 1153.4121,513.4844" fill="none" style="stroke:#181818;stroke-width:1.5;"/></g><g><title>API</title><rect fill="#FFFFFF" height="320.4609" style="stroke:#181818;stroke-width:1;" width="10" x="301.2456" y="149.7266"/></g><g><title>ProductController</title><rect fill="#FFFFFF" height="262.1953" style="stroke:#181818;stroke-width:1;" width="10" x="507.8765" y="178.8594"/></g><g><title>ProductService</title><rect fill="#FFFFFF" height="203.9297" style="stroke:#181818;stroke-width:1;" width="10" x="655.5078" y="207.9922"/></g><g><title>ProductMapper</title><rect fill="#FFFFFF" height="29.1328" style="stroke:#181818;stroke-width:1;" width="10" x="823.7119" y="237.125"/></g><g><title>ProductRepository</title><rect fill="#FFFFFF" height="87.3984" style="stroke:#181818;stroke-width:1;" width="10" x="957.3584" y="295.3906"/></g><g><title>Database</title><rect fill="#FFFFFF" height="29.1328" style="stroke:#181818;stroke-width:1;" width="10" x="1130.4121" y="324.5234"/></g><g class="message" data-participant-1="User" data-participant-2="API"><polygon fill="#181818" points="289.2456,145.7266,299.2456,149.7266,289.2456,153.7266,293.2456,149.7266" style="stroke:#181818;stroke-width:1;"/><line style="stroke:#181818;stroke-width:1;" x1="23.9551" x2="295.2456" y1="149.7266" y2="149.7266"/><text fill="#000000" font-family="sans-serif" font-size="13" lengthAdjust="spacing" textLength="128.686" x="30.9551" y="144.6606">POST /products/add</text></g><g class="message" data-participant-1="API" data-participant-2="ProductController"><polygon fill="#181818" points="495.8765,174.8594,505.8765,178.8594,495.8765,182.8594,499.8765,178.8594" style="stroke:#181818;stroke-width:1;"/><line style="stroke:#181818;stroke-width:1;" x1="311.2456" x2="501.8765" y1="178.8594" y2="178.8594"/><text fill="#000000" font-family="sans-serif" font-size="13" lengthAdjust="spacing" textLength="162.5444" x="318.2456" y="173.7935">addProduct(ProductDTO)</text></g><g class="message" data-participant-1="ProductController" data-participant-2="ProductService"><polygon fill="#181818" points="643.5078,203.9922,653.5078,207.9922,643.5078,211.9922,647.5078,207.9922" style="stroke:#181818;stroke-width:1;"/><line style="stroke:#181818;stroke-width:1;" x1="517.8765" x2="649.5078" y1="207.9922" y2="207.9922"/><text fill="#000000" font-family="sans-serif" font-size="13" lengthAdjust="spacing" textLength="118.6313" x="524.8765" y="202.9263">save(ProductDTO)</text></g><g class="message" data-participant-1="ProductService" data-participant-2="ProductMapper"><polygon fill="#181818" points="811.7119,233.125,821.7119,237.125,811.7119,241.125,815.7119,237.125" style="stroke:#181818;stroke-width:1;"/><line style="stroke:#181818;stroke-width:1;" x1="665.5078" x2="817.7119" y1="237.125" y2="237.125"/><text fill="#000000" font-family="sans-serif" font-size="13" lengthAdjust="spacing" textLength="139.2041" x="672.5078" y="232.0591">toEntity(ProductDTO)</text></g><g class="message" data-participant-1="ProductMapper" data-participant-2="ProductService"><polygon fill="#181818" points="676.5078,262.2578,666.5078,266.2578,676.5078,270.2578,672.5078,266.2578" style="stroke:#181818;stroke-width:1;"/><line style="stroke:#181818;stroke-width:1;stroke-dasharray:2.0,2.0;" x1="670.5078" x2="827.7119" y1="266.2578" y2="266.2578"/><text fill="#000000" font-family="sans-serif" font-size="13" lengthAdjust="spacing" textLength="49.8735" x="682.5078" y="261.1919">Product</text></g><g class="message" data-participant-1="ProductService" data-participant-2="Repo"><polygon fill="#181818" points="945.3584,291.3906,955.3584,295.3906,945.3584,299.3906,949.3584,295.3906" style="stroke:#181818;stroke-width:1;"/><line style="stroke:#181818;stroke-width:1;" x1="665.5078" x2="951.3584" y1="295.3906" y2="295.3906"/><text fill="#000000" font-family="sans-serif" font-size="13" lengthAdjust="spacing" textLength="90.4478" x="672.5078" y="290.3247">save(Product)</text></g><g class="message" data-participant-1="Repo" data-participant-2="Database"><polygon fill="#181818" points="1118.4121,320.5234,1128.4121,324.5234,1118.4121,328.5234,1122.4121,324.5234" style="stroke:#181818;stroke-width:1;"/><line style="stroke:#181818;stroke-width:1;" x1="967.3584" x2="1124.4121" y1="324.5234" y2="324.5234"/><text fill="#000000" font-family="sans-serif" font-size="13" lengthAdjust="spacing" textLength="144.0537" x="974.3584" y="319.4575">INSERT INTO products</text></g><g class="message" data-participant-1="Database" data-participant-2="Repo"><polygon fill="#181818" points="978.3584,349.6563,968.3584,353.6563,978.3584,357.6563,974.3584,353.6563" style="stroke:#181818;stroke-width:1;"/><line style="stroke:#181818;stroke-width:1;stroke-dasharray:2.0,2.0;" x1="972.3584" x2="1134.4121" y1="353.6563" y2="353.6563"/><text fill="#000000" font-family="sans-serif" font-size="13" lengthAdjust="spacing" textLength="67.8501" x="984.3584" y="348.5903">Product ID</text></g><g class="message" data-participant-1="Repo" data-participant-2="ProductService"><polygon fill="#181818" points="676.5078,378.7891,666.5078,382.7891,676.5078,386.7891,672.5078,382.7891" style="stroke:#181818;stroke-width:1;"/><line style="stroke:#181818;stroke-width:1;stroke-dasharray:2.0,2.0;" x1="670.5078" x2="961.3584" y1="382.7891" y2="382.7891"/><text fill="#000000" font-family="sans-serif" font-size="13" lengthAdjust="spacing" textLength="88.5562" x="682.5078" y="377.7231">savedProduct</text></g><g class="message" data-participant-1="ProductService" data-participant-2="ProductController"><polygon fill="#181818" points="528.8765,407.9219,518.8765,411.9219,528.8765,415.9219,524.8765,411.9219" style="stroke:#181818;stroke-width:1;"/><line style="stroke:#181818;stroke-width:1;stroke-dasharray:2.0,2.0;" x1="522.8765" x2="659.5078" y1="411.9219" y2="411.9219"/><text fill="#000000" font-family="sans-serif" font-size="13" lengthAdjust="spacing" textLength="49.8735" x="534.8765" y="406.856">Product</text></g><g class="message" data-participant-1="ProductController" data-participant-2="API"><polygon fill="#181818" points="322.2456,437.0547,312.2456,441.0547,322.2456,445.0547,318.2456,441.0547" style="stroke:#181818;stroke-width:1;"/><line style="stroke:#181818;stroke-width:1;stroke-dasharray:2.0,2.0;" x1="316.2456" x2="511.8765" y1="441.0547" y2="441.0547"/><text fill="#000000" font-family="sans-serif" font-size="13" lengthAdjust="spacing" textLength="172.6309" x="328.2456" y="435.9888">ResponseEntity&lt;Product&gt;</text></g><g class="message" data-participant-1="API" data-participant-2="User"><polygon fill="#181818" points="34.9551,466.1875,24.9551,470.1875,34.9551,474.1875,30.9551,470.1875" style="stroke:#181818;stroke-width:1;"/><line style="stroke:#181818;stroke-width:1;stroke-dasharray:2.0,2.0;" x1="28.9551" x2="305.2456" y1="470.1875" y2="470.1875"/><text fill="#000000" font-family="sans-serif" font-size="13" lengthAdjust="spacing" textLength="253.2905" x="40.9551" y="465.1216">Show list of products with new product</text></g><!--SRC=[XL91Ri8m4Bpx5IjExG5nHnKIAXmuj22IFi2Djy9I55ls5iJlQyTsR1AW9oVhsV7Cxf2a5c4j11oC4hyDCSORKWQ-B1gckI7PICqxWlLXnnhLaL5jmhw7tzOXqyqiNbLephB16N0BjwK9z8DhZQP4XWeJdFWtjvZAHzJAIYVkwh7-BqCsyOCnBnpcAwyNbd3OLpKiT22m2ow4zoVFdB1tn3pCeIUENAy3n_9BF3Vr_ZNtJwV0fZIPE_ftn9QVyIbb6XKRjMQoC2B7HMhRaQJhKxuuK7RRFB-dBSL0u3yaXIQ_Yf6jGaE_ADPZ73Ojok5tdzNsMBkZtaFQK6uRDZfqpFDJyHNORKgXEGJXjKUp5tTC1fLZRm-IyNX8uysLIHX2UKIhLMSnREujGbTtwCfizKbr77t0br2Tr0LQQGdKpp0-k4WwGOUNL2av7S4V]--></g></svg>