<svg xmlns="http://www.w3.org/2000/svg" xmlns:xlink="http://www.w3.org/1999/xlink" contentStyleType="text/css" data-diagram-type="SEQUENCE" height="525px" preserveAspectRatio="none" style="width:1018px;height:525px;background:#FFFFFF;" version="1.1" viewBox="0 0 1018 525" width="1018px" zoomAndPan="magnify"><title>Delete Product</title><defs/><g><text fill="#000000" font-family="sans-serif" font-size="14" font-weight="bold" lengthAdjust="spacing" textLength="118.2344" x="451.4543" y="27.9951">Delete Product</text><g><title>API</title><rect fill="#FFFFFF" height="277.3281" style="stroke:#181818;stroke-width:1;" width="10" x="344.873" y="149.7266"/></g><g><title>ProductController</title><rect fill="#FFFFFF" height="219.0625" style="stroke:#181818;stroke-width:1;" width="10" x="530.3408" y="178.8594"/></g><g><title>ProductService</title><rect fill="#FFFFFF" height="160.7969" style="stroke:#181818;stroke-width:1;" width="10" x="660.5078" y="207.9922"/></g><g><title>ProductRepository</title><rect fill="#FFFFFF" height="102.5313" style="stroke:#181818;stroke-width:1;" width="10" x="793.6245" y="237.125"/></g><g><title>Database</title><rect fill="#FFFFFF" height="29.1328" style="stroke:#181818;stroke-width:1;" width="10" x="975.7427" y="281.3906"/></g><g><title>User</title><rect fill="#000000" fill-opacity="0.00000" height="326.4609" width="8" x="19.9551" y="118.5938"/><line style="stroke:#181818;stroke-width:0.5;stroke-dasharray:5.0,5.0;" x1="23" x2="23" y1="118.5938" y2="445.0547"/></g><g><title>API</title><rect fill="#000000" fill-opacity="0.00000" height="326.4609" width="8" x="345.873" y="118.5938"/><line style="stroke:#181818;stroke-width:0.5;stroke-dasharray:5.0,5.0;" x1="349.7988" x2="349.7988" y1="118.5938" y2="445.0547"/></g><g><title>ProductController</title><rect fill="#000000" fill-opacity="0.00000" height="326.4609" width="8" x="531.3408" y="118.5938"/><line style="stroke:#181818;stroke-width:0.5;stroke-dasharray:5.0,5.0;" x1="534.8994" x2="534.8994" y1="118.5938" y2="445.0547"/></g><g><title>ProductService</title><rect fill="#000000" fill-opacity="0.00000" height="326.4609" width="8" x="661.5078" y="118.5938"/><line style="stroke:#181818;stroke-width:0.5;stroke-dasharray:5.0,5.0;" x1="664.7822" x2="664.7822" y1="118.5938" y2="445.0547"/></g><g><title>ProductRepository</title><rect fill="#000000" fill-opacity="0.00000" height="326.4609" width="8" x="794.6245" y="118.5938"/><line style="stroke:#181818;stroke-width:0.5;stroke-dasharray:5.0,5.0;" x1="798.2334" x2="798.2334" y1="118.5938" y2="445.0547"/></g><g><title>Database</title><rect fill="#000000" fill-opacity="0.00000" height="326.4609" width="8" x="976.7427" y="118.5938"/><line style="stroke:#181818;stroke-width:0.5;stroke-dasharray:5.0,5.0;" x1="980.3423" x2="980.3423" y1="118.5938" y2="445.0547"/></g><g class="participant participant-head" data-participant="User"><text fill="#000000" font-family="sans-serif" font-size="14" lengthAdjust="spacing" textLength="31.9102" x="5" y="115.292">User</text><ellipse cx="23.9551" cy="50.7969" fill="#E2E2F0" rx="8" ry="8" style="stroke:#181818;stroke-width:0.5;"/><path d="M23.9551,58.7969 L23.9551,85.7969 M10.9551,66.7969 L36.9551,66.7969 M23.9551,85.7969 L10.9551,100.7969 M23.9551,85.7969 L36.9551,100.7969" fill="none" style="stroke:#181818;stroke-width:0.5;"/></g><g class="participant participant-tail" data-participant="User"><text fill="#000000" font-family="sans-serif" font-size="14" lengthAdjust="spacing" textLength="31.9102" x="5" y="457.0498">User</text><ellipse cx="23.9551" cy="468.8516" fill="#E2E2F0" rx="8" ry="8" style="stroke:#181818;stroke-width:0.5;"/><path d="M23.9551,476.8516 L23.9551,503.8516 M10.9551,484.8516 L36.9551,484.8516 M23.9551,503.8516 L10.9551,518.8516 M23.9551,503.8516 L36.9551,518.8516" fill="none" style="stroke:#181818;stroke-width:0.5;"/></g><g class="participant participant-head" data-participant="API"><rect fill="#E2E2F0" height="30.2969" rx="2.5" ry="2.5" style="stroke:#181818;stroke-width:0.5;" width="36.1484" x="331.7988" y="87.2969"/><text fill="#000000" font-family="sans-serif" font-size="14" lengthAdjust="spacing" textLength="22.1484" x="338.7988" y="107.292">API</text></g><g class="participant participant-tail" data-participant="API"><rect fill="#E2E2F0" height="30.2969" rx="2.5" ry="2.5" style="stroke:#181818;stroke-width:0.5;" width="36.1484" x="331.7988" y="444.0547"/><text fill="#000000" font-family="sans-serif" font-size="14" lengthAdjust="spacing" textLength="22.1484" x="338.7988" y="464.0498">API</text></g><g class="participant participant-head" data-participant="ProductController"><text fill="#000000" font-family="sans-serif" font-size="14" lengthAdjust="spacing" textLength="122.8828" x="470.8994" y="115.292">ProductController</text><ellipse cx="535.3408" cy="86.2969" fill="#E2E2F0" rx="12" ry="12" style="stroke:#181818;stroke-width:0.5;"/><polygon fill="#181818" points="531.3408,74.2969,537.3408,69.2969,535.3408,74.2969,537.3408,79.2969,531.3408,74.2969" style="stroke:#181818;stroke-width:1;"/></g><g class="participant participant-tail" data-participant="ProductController"><text fill="#000000" font-family="sans-serif" font-size="14" lengthAdjust="spacing" textLength="122.8828" x="470.8994" y="457.0498">ProductController</text><ellipse cx="535.3408" cy="476.3516" fill="#E2E2F0" rx="12" ry="12" style="stroke:#181818;stroke-width:0.5;"/><polygon fill="#181818" points="531.3408,464.3516,537.3408,459.3516,535.3408,464.3516,537.3408,469.3516,531.3408,464.3516" style="stroke:#181818;stroke-width:1;"/></g><g class="participant participant-head" data-participant="ProductService"><text fill="#000000" font-family="sans-serif" font-size="14" lengthAdjust="spacing" textLength="105.4512" x="609.7822" y="115.292">ProductService</text><ellipse cx="665.5078" cy="86.2969" fill="#E2E2F0" rx="12" ry="12" style="stroke:#181818;stroke-width:0.5;"/><polygon fill="#181818" points="661.5078,74.2969,667.5078,69.2969,665.5078,74.2969,667.5078,79.2969,661.5078,74.2969" style="stroke:#181818;stroke-width:1;"/></g><g class="participant participant-tail" data-participant="ProductService"><text fill="#000000" font-family="sans-serif" font-size="14" lengthAdjust="spacing" textLength="105.4512" x="609.7822" y="457.0498">ProductService</text><ellipse cx="665.5078" cy="476.3516" fill="#E2E2F0" rx="12" ry="12" style="stroke:#181818;stroke-width:0.5;"/><polygon fill="#181818" points="661.5078,464.3516,667.5078,459.3516,665.5078,464.3516,667.5078,469.3516,661.5078,464.3516" style="stroke:#181818;stroke-width:1;"/></g><g class="participant participant-head" data-participant="Repo"><text fill="#000000" font-family="sans-serif" font-size="14" lengthAdjust="spacing" textLength="128.7822" x="731.2334" y="115.292">ProductRepository</text><path d="M780.6245,66.2969 C780.6245,56.2969 798.6245,56.2969 798.6245,56.2969 C798.6245,56.2969 816.6245,56.2969 816.6245,66.2969 L816.6245,92.2969 C816.6245,102.2969 798.6245,102.2969 798.6245,102.2969 C798.6245,102.2969 780.6245,102.2969 780.6245,92.2969 L780.6245,66.2969" fill="#E2E2F0" style="stroke:#181818;stroke-width:1.5;"/><path d="M780.6245,66.2969 C780.6245,76.2969 798.6245,76.2969 798.6245,76.2969 C798.6245,76.2969 816.6245,76.2969 816.6245,66.2969" fill="none" style="stroke:#181818;stroke-width:1.5;"/></g><g class="participant participant-tail" data-participant="Repo"><text fill="#000000" font-family="sans-serif" font-size="14" lengthAdjust="spacing" textLength="128.7822" x="731.2334" y="457.0498">ProductRepository</text><path d="M780.6245,470.3516 C780.6245,460.3516 798.6245,460.3516 798.6245,460.3516 C798.6245,460.3516 816.6245,460.3516 816.6245,470.3516 L816.6245,496.3516 C816.6245,506.3516 798.6245,506.3516 798.6245,506.3516 C798.6245,506.3516 780.6245,506.3516 780.6245,496.3516 L780.6245,470.3516" fill="#E2E2F0" style="stroke:#181818;stroke-width:1.5;"/><path d="M780.6245,470.3516 C780.6245,480.3516 798.6245,480.3516 798.6245,480.3516 C798.6245,480.3516 816.6245,480.3516 816.6245,470.3516" fill="none" style="stroke:#181818;stroke-width:1.5;"/></g><g class="participant participant-head" data-participant="Database"><text fill="#000000" font-family="sans-serif" font-size="14" lengthAdjust="spacing" textLength="66.8008" x="944.3423" y="115.292">Database</text><path d="M962.7427,66.2969 C962.7427,56.2969 980.7427,56.2969 980.7427,56.2969 C980.7427,56.2969 998.7427,56.2969 998.7427,66.2969 L998.7427,92.2969 C998.7427,102.2969 980.7427,102.2969 980.7427,102.2969 C980.7427,102.2969 962.7427,102.2969 962.7427,92.2969 L962.7427,66.2969" fill="#E2E2F0" style="stroke:#181818;stroke-width:1.5;"/><path d="M962.7427,66.2969 C962.7427,76.2969 980.7427,76.2969 980.7427,76.2969 C980.7427,76.2969 998.7427,76.2969 998.7427,66.2969" fill="none" style="stroke:#181818;stroke-width:1.5;"/></g><g class="participant participant-tail" data-participant="Database"><text fill="#000000" font-family="sans-serif" font-size="14" lengthAdjust="spacing" textLength="66.8008" x="944.3423" y="457.0498">Database</text><path d="M962.7427,470.3516 C962.7427,460.3516 980.7427,460.3516 980.7427,460.3516 C980.7427,460.3516 998.7427,460.3516 998.7427,470.3516 L998.7427,496.3516 C998.7427,506.3516 980.7427,506.3516 980.7427,506.3516 C980.7427,506.3516 962.7427,506.3516 962.7427,496.3516 L962.7427,470.3516" fill="#E2E2F0" style="stroke:#181818;stroke-width:1.5;"/><path d="M962.7427,470.3516 C962.7427,480.3516 980.7427,480.3516 980.7427,480.3516 C980.7427,480.3516 998.7427,480.3516 998.7427,470.3516" fill="none" style="stroke:#181818;stroke-width:1.5;"/></g><g><title>API</title><rect fill="#FFFFFF" height="277.3281" style="stroke:#181818;stroke-width:1;" width="10" x="344.873" y="149.7266"/></g><g><title>ProductController</title><rect fill="#FFFFFF" height="219.0625" style="stroke:#181818;stroke-width:1;" width="10" x="530.3408" y="178.8594"/></g><g><title>ProductService</title><rect fill="#FFFFFF" height="160.7969" style="stroke:#181818;stroke-width:1;" width="10" x="660.5078" y="207.9922"/></g><g><title>ProductRepository</title><rect fill="#FFFFFF" height="102.5313" style="stroke:#181818;stroke-width:1;" width="10" x="793.6245" y="237.125"/></g><g><title>Database</title><rect fill="#FFFFFF" height="29.1328" style="stroke:#181818;stroke-width:1;" width="10" x="975.7427" y="281.3906"/></g><g class="message" data-participant-1="User" data-participant-2="API"><polygon fill="#181818" points="332.873,145.7266,342.873,149.7266,332.873,153.7266,336.873,149.7266" style="stroke:#181818;stroke-width:1;"/><line style="stroke:#181818;stroke-width:1;" x1="23.9551" x2="338.873" y1="149.7266" y2="149.7266"/><text fill="#000000" font-family="sans-serif" font-size="13" lengthAdjust="spacing" textLength="148.1924" x="30.9551" y="144.6606">DELETE /products/{id}</text></g><g class="message" data-participant-1="API" data-participant-2="ProductController"><polygon fill="#181818" points="518.3408,174.8594,528.3408,178.8594,518.3408,182.8594,522.3408,178.8594" style="stroke:#181818;stroke-width:1;"/><line style="stroke:#181818;stroke-width:1;" x1="354.873" x2="524.3408" y1="178.8594" y2="178.8594"/><text fill="#000000" font-family="sans-serif" font-size="13" lengthAdjust="spacing" textLength="112.8359" x="361.873" y="173.7935">deleteProduct(id)</text></g><g class="message" data-participant-1="ProductController" data-participant-2="ProductService"><polygon fill="#181818" points="648.5078,203.9922,658.5078,207.9922,648.5078,211.9922,652.5078,207.9922" style="stroke:#181818;stroke-width:1;"/><line style="stroke:#181818;stroke-width:1;" x1="540.3408" x2="654.5078" y1="207.9922" y2="207.9922"/><text fill="#000000" font-family="sans-serif" font-size="13" lengthAdjust="spacing" textLength="91.6602" x="547.3408" y="202.9263">deleteById(id)</text></g><g class="message" data-participant-1="ProductService" data-participant-2="Repo"><polygon fill="#181818" points="781.6245,233.125,791.6245,237.125,781.6245,241.125,785.6245,237.125" style="stroke:#181818;stroke-width:1;"/><line style="stroke:#181818;stroke-width:1;" x1="670.5078" x2="787.6245" y1="237.125" y2="237.125"/><text fill="#000000" font-family="sans-serif" font-size="13" lengthAdjust="spacing" textLength="91.6602" x="677.5078" y="232.0591">deleteById(id)</text></g><g class="message" data-participant-1="Repo" data-participant-2="Database"><polygon fill="#181818" points="963.7427,277.3906,973.7427,281.3906,963.7427,285.3906,967.7427,281.3906" style="stroke:#181818;stroke-width:1;"/><line style="stroke:#181818;stroke-width:1;" x1="803.6245" x2="969.7427" y1="281.3906" y2="281.3906"/><text fill="#000000" font-family="sans-serif" font-size="13" lengthAdjust="spacing" textLength="153.1182" x="810.6245" y="261.1919">DELETE FROM products</text><text fill="#000000" font-family="sans-serif" font-size="13" lengthAdjust="spacing" textLength="90.1431" x="810.6245" y="276.3247">WHERE id = ?</text></g><g class="message" data-participant-1="Database" data-participant-2="Repo"><polygon fill="#181818" points="814.6245,306.5234,804.6245,310.5234,814.6245,314.5234,810.6245,310.5234" style="stroke:#181818;stroke-width:1;"/><line style="stroke:#181818;stroke-width:1;stroke-dasharray:2.0,2.0;" x1="808.6245" x2="979.7427" y1="310.5234" y2="310.5234"/><text fill="#000000" font-family="sans-serif" font-size="13" lengthAdjust="spacing" textLength="84.335" x="820.6245" y="305.4575">Confirmation</text></g><g class="message" data-participant-1="Repo" data-participant-2="ProductService"><polygon fill="#181818" points="681.5078,335.6563,671.5078,339.6563,681.5078,343.6563,677.5078,339.6563" style="stroke:#181818;stroke-width:1;"/><line style="stroke:#181818;stroke-width:1;stroke-dasharray:2.0,2.0;" x1="675.5078" x2="797.6245" y1="339.6563" y2="339.6563"/><text fill="#000000" font-family="sans-serif" font-size="13" lengthAdjust="spacing" textLength="27.5107" x="687.5078" y="334.5903">void</text></g><g class="message" data-participant-1="ProductService" data-participant-2="ProductController"><polygon fill="#181818" points="551.3408,364.7891,541.3408,368.7891,551.3408,372.7891,547.3408,368.7891" style="stroke:#181818;stroke-width:1;"/><line style="stroke:#181818;stroke-width:1;stroke-dasharray:2.0,2.0;" x1="545.3408" x2="664.5078" y1="368.7891" y2="368.7891"/><text fill="#000000" font-family="sans-serif" font-size="13" lengthAdjust="spacing" textLength="27.5107" x="557.3408" y="363.7231">void</text></g><g class="message" data-participant-1="ProductController" data-participant-2="API"><polygon fill="#181818" points="365.873,393.9219,355.873,397.9219,365.873,401.9219,361.873,397.9219" style="stroke:#181818;stroke-width:1;"/><line style="stroke:#181818;stroke-width:1;stroke-dasharray:2.0,2.0;" x1="359.873" x2="534.3408" y1="397.9219" y2="397.9219"/><text fill="#000000" font-family="sans-serif" font-size="13" lengthAdjust="spacing" textLength="151.4678" x="371.873" y="392.856">ResponseEntity&lt;Void&gt;</text></g><g class="message" data-participant-1="API" data-participant-2="User"><polygon fill="#181818" points="34.9551,423.0547,24.9551,427.0547,34.9551,431.0547,30.9551,427.0547" style="stroke:#181818;stroke-width:1;"/><line style="stroke:#181818;stroke-width:1;stroke-dasharray:2.0,2.0;" x1="28.9551" x2="348.873" y1="427.0547" y2="427.0547"/><text fill="#000000" font-family="sans-serif" font-size="13" lengthAdjust="spacing" textLength="296.918" x="40.9551" y="421.9888">Show list of products without deleted product</text></g><!--SRC=[VLBBJiCm4BpxArOzmQ7glO8Y845K0b6bF2vSJEogAmKxihUf8iI_O-VbD4cvnTcPsPtP9QHCGYGpIH8sHej3IepnbBI1DoiDoxaXJ37dYk1sisQfLcHqrcBlwsVca6rbrfIsqXIOoXbm2wU_cE34lxZjEYOornPTpzA3_Ij0ekQ3CJyFp5T-35X253_5hp4iybh2BdvG_Fh9iU3EYv-LUQGZZ6PrT55PRYeNA2u3TMoDZHM2R6Egqxmhrs9Ii7NF1aGdvIt_8r0bmYgG0xU9X10UafTdQ8FuL1-FSH832hY6co3I1Tdnvw6pSxP3yyq9jM92ZabDzodRXKRHvzJJ3asUsSEGV2QhVlBT2IJIvbfP6Ij2Ag_UdTHgGgk_oEeYd41rIqlOxlKHChG4UjS524UalJvGimxH5lhIJkSF]--></g></svg>