<svg xmlns="http://www.w3.org/2000/svg" xmlns:xlink="http://www.w3.org/1999/xlink" contentStyleType="text/css" data-diagram-type="SEQUENCE" height="599px" preserveAspectRatio="none" style="width:1293px;height:599px;background:#FFFFFF;" version="1.1" viewBox="0 0 1293 599" width="1293px" zoomAndPan="magnify"><title>Product Search</title><defs/><g><text fill="#000000" font-family="sans-serif" font-size="14" font-weight="bold" lengthAdjust="spacing" textLength="120.832" x="587.6194" y="27.9951">Product Search</text><g><title>API</title><rect fill="#FFFFFF" height="350.7266" style="stroke:#181818;stroke-width:1;" width="10" x="269.0269" y="149.7266"/></g><g><title>ProductController</title><rect fill="#FFFFFF" height="292.4609" style="stroke:#181818;stroke-width:1;" width="10" x="548.3511" y="178.8594"/></g><g><title>ProductService</title><rect fill="#FFFFFF" height="234.1953" style="stroke:#181818;stroke-width:1;" width="10" x="725.1372" y="207.9922"/></g><g><title>ProductMapper</title><rect fill="#FFFFFF" height="29.1328" style="stroke:#181818;stroke-width:1;" width="10" x="899.8984" y="383.9219"/></g><g><title>ProductRepository</title><rect fill="#FFFFFF" height="117.6641" style="stroke:#181818;stroke-width:1;" width="10" x="1033.5449" y="237.125"/></g><g><title>Database</title><rect fill="#FFFFFF" height="29.1328" style="stroke:#181818;stroke-width:1;" width="10" x="1250.6704" y="296.5234"/></g><g><title>User</title><rect fill="#000000" fill-opacity="0.00000" height="399.8594" width="8" x="19.9551" y="118.5938"/><line style="stroke:#181818;stroke-width:0.5;stroke-dasharray:5.0,5.0;" x1="23" x2="23" y1="118.5938" y2="518.4531"/></g><g><title>API</title><rect fill="#000000" fill-opacity="0.00000" height="399.8594" width="8" x="270.0269" y="118.5938"/><line style="stroke:#181818;stroke-width:0.5;stroke-dasharray:5.0,5.0;" x1="273.9526" x2="273.9526" y1="118.5938" y2="518.4531"/></g><g><title>ProductController</title><rect fill="#000000" fill-opacity="0.00000" height="399.8594" width="8" x="549.3511" y="118.5938"/><line style="stroke:#181818;stroke-width:0.5;stroke-dasharray:5.0,5.0;" x1="552.9097" x2="552.9097" y1="118.5938" y2="518.4531"/></g><g><title>ProductService</title><rect fill="#000000" fill-opacity="0.00000" height="399.8594" width="8" x="726.1372" y="118.5938"/><line style="stroke:#181818;stroke-width:0.5;stroke-dasharray:5.0,5.0;" x1="729.4116" x2="729.4116" y1="118.5938" y2="518.4531"/></g><g><title>ProductMapper</title><rect fill="#000000" fill-opacity="0.00000" height="399.8594" width="8" x="900.8984" y="118.5938"/><line style="stroke:#181818;stroke-width:0.5;stroke-dasharray:5.0,5.0;" x1="904.6431" x2="904.6431" y1="118.5938" y2="518.4531"/></g><g><title>ProductRepository</title><rect fill="#000000" fill-opacity="0.00000" height="399.8594" width="8" x="1034.5449" y="118.5938"/><line style="stroke:#181818;stroke-width:0.5;stroke-dasharray:5.0,5.0;" x1="1038.1538" x2="1038.1538" y1="118.5938" y2="518.4531"/></g><g><title>Database</title><rect fill="#000000" fill-opacity="0.00000" height="399.8594" width="8" x="1251.6704" y="118.5938"/><line style="stroke:#181818;stroke-width:0.5;stroke-dasharray:5.0,5.0;" x1="1255.27" x2="1255.27" y1="118.5938" y2="518.4531"/></g><g class="participant participant-head" data-participant="User"><text fill="#000000" font-family="sans-serif" font-size="14" lengthAdjust="spacing" textLength="31.9102" x="5" y="115.292">User</text><ellipse cx="23.9551" cy="50.7969" fill="#E2E2F0" rx="8" ry="8" style="stroke:#181818;stroke-width:0.5;"/><path d="M23.9551,58.7969 L23.9551,85.7969 M10.9551,66.7969 L36.9551,66.7969 M23.9551,85.7969 L10.9551,100.7969 M23.9551,85.7969 L36.9551,100.7969" fill="none" style="stroke:#181818;stroke-width:0.5;"/></g><g class="participant participant-tail" data-participant="User"><text fill="#000000" font-family="sans-serif" font-size="14" lengthAdjust="spacing" textLength="31.9102" x="5" y="530.4482">User</text><ellipse cx="23.9551" cy="542.25" fill="#E2E2F0" rx="8" ry="8" style="stroke:#181818;stroke-width:0.5;"/><path d="M23.9551,550.25 L23.9551,577.25 M10.9551,558.25 L36.9551,558.25 M23.9551,577.25 L10.9551,592.25 M23.9551,577.25 L36.9551,592.25" fill="none" style="stroke:#181818;stroke-width:0.5;"/></g><g class="participant participant-head" data-participant="API"><rect fill="#E2E2F0" height="30.2969" rx="2.5" ry="2.5" style="stroke:#181818;stroke-width:0.5;" width="36.1484" x="255.9526" y="87.2969"/><text fill="#000000" font-family="sans-serif" font-size="14" lengthAdjust="spacing" textLength="22.1484" x="262.9526" y="107.292">API</text></g><g class="participant participant-tail" data-participant="API"><rect fill="#E2E2F0" height="30.2969" rx="2.5" ry="2.5" style="stroke:#181818;stroke-width:0.5;" width="36.1484" x="255.9526" y="517.4531"/><text fill="#000000" font-family="sans-serif" font-size="14" lengthAdjust="spacing" textLength="22.1484" x="262.9526" y="537.4482">API</text></g><g class="participant participant-head" data-participant="ProductController"><text fill="#000000" font-family="sans-serif" font-size="14" lengthAdjust="spacing" textLength="122.8828" x="488.9097" y="115.292">ProductController</text><ellipse cx="553.3511" cy="86.2969" fill="#E2E2F0" rx="12" ry="12" style="stroke:#181818;stroke-width:0.5;"/><polygon fill="#181818" points="549.3511,74.2969,555.3511,69.2969,553.3511,74.2969,555.3511,79.2969,549.3511,74.2969" style="stroke:#181818;stroke-width:1;"/></g><g class="participant participant-tail" data-participant="ProductController"><text fill="#000000" font-family="sans-serif" font-size="14" lengthAdjust="spacing" textLength="122.8828" x="488.9097" y="530.4482">ProductController</text><ellipse cx="553.3511" cy="549.75" fill="#E2E2F0" rx="12" ry="12" style="stroke:#181818;stroke-width:0.5;"/><polygon fill="#181818" points="549.3511,537.75,555.3511,532.75,553.3511,537.75,555.3511,542.75,549.3511,537.75" style="stroke:#181818;stroke-width:1;"/></g><g class="participant participant-head" data-participant="ProductService"><text fill="#000000" font-family="sans-serif" font-size="14" lengthAdjust="spacing" textLength="105.4512" x="674.4116" y="115.292">ProductService</text><ellipse cx="730.1372" cy="86.2969" fill="#E2E2F0" rx="12" ry="12" style="stroke:#181818;stroke-width:0.5;"/><polygon fill="#181818" points="726.1372,74.2969,732.1372,69.2969,730.1372,74.2969,732.1372,79.2969,726.1372,74.2969" style="stroke:#181818;stroke-width:1;"/></g><g class="participant participant-tail" data-participant="ProductService"><text fill="#000000" font-family="sans-serif" font-size="14" lengthAdjust="spacing" textLength="105.4512" x="674.4116" y="530.4482">ProductService</text><ellipse cx="730.1372" cy="549.75" fill="#E2E2F0" rx="12" ry="12" style="stroke:#181818;stroke-width:0.5;"/><polygon fill="#181818" points="726.1372,537.75,732.1372,532.75,730.1372,537.75,732.1372,542.75,726.1372,537.75" style="stroke:#181818;stroke-width:1;"/></g><g class="participant participant-head" data-participant="ProductMapper"><text fill="#000000" font-family="sans-serif" font-size="14" lengthAdjust="spacing" textLength="106.5107" x="848.6431" y="115.292">ProductMapper</text><ellipse cx="904.8984" cy="86.2969" fill="#E2E2F0" rx="12" ry="12" style="stroke:#181818;stroke-width:0.5;"/><polygon fill="#181818" points="900.8984,74.2969,906.8984,69.2969,904.8984,74.2969,906.8984,79.2969,900.8984,74.2969" style="stroke:#181818;stroke-width:1;"/></g><g class="participant participant-tail" data-participant="ProductMapper"><text fill="#000000" font-family="sans-serif" font-size="14" lengthAdjust="spacing" textLength="106.5107" x="848.6431" y="530.4482">ProductMapper</text><ellipse cx="904.8984" cy="549.75" fill="#E2E2F0" rx="12" ry="12" style="stroke:#181818;stroke-width:0.5;"/><polygon fill="#181818" points="900.8984,537.75,906.8984,532.75,904.8984,537.75,906.8984,542.75,900.8984,537.75" style="stroke:#181818;stroke-width:1;"/></g><g class="participant participant-head" data-participant="Repo"><text fill="#000000" font-family="sans-serif" font-size="14" lengthAdjust="spacing" textLength="128.7822" x="971.1538" y="115.292">ProductRepository</text><path d="M1020.5449,66.2969 C1020.5449,56.2969 1038.5449,56.2969 1038.5449,56.2969 C1038.5449,56.2969 1056.5449,56.2969 1056.5449,66.2969 L1056.5449,92.2969 C1056.5449,102.2969 1038.5449,102.2969 1038.5449,102.2969 C1038.5449,102.2969 1020.5449,102.2969 1020.5449,92.2969 L1020.5449,66.2969" fill="#E2E2F0" style="stroke:#181818;stroke-width:1.5;"/><path d="M1020.5449,66.2969 C1020.5449,76.2969 1038.5449,76.2969 1038.5449,76.2969 C1038.5449,76.2969 1056.5449,76.2969 1056.5449,66.2969" fill="none" style="stroke:#181818;stroke-width:1.5;"/></g><g class="participant participant-tail" data-participant="Repo"><text fill="#000000" font-family="sans-serif" font-size="14" lengthAdjust="spacing" textLength="128.7822" x="971.1538" y="530.4482">ProductRepository</text><path d="M1020.5449,543.75 C1020.5449,533.75 1038.5449,533.75 1038.5449,533.75 C1038.5449,533.75 1056.5449,533.75 1056.5449,543.75 L1056.5449,569.75 C1056.5449,579.75 1038.5449,579.75 1038.5449,579.75 C1038.5449,579.75 1020.5449,579.75 1020.5449,569.75 L1020.5449,543.75" fill="#E2E2F0" style="stroke:#181818;stroke-width:1.5;"/><path d="M1020.5449,543.75 C1020.5449,553.75 1038.5449,553.75 1038.5449,553.75 C1038.5449,553.75 1056.5449,553.75 1056.5449,543.75" fill="none" style="stroke:#181818;stroke-width:1.5;"/></g><g class="participant participant-head" data-participant="Database"><text fill="#000000" font-family="sans-serif" font-size="14" lengthAdjust="spacing" textLength="66.8008" x="1219.27" y="115.292">Database</text><path d="M1237.6704,66.2969 C1237.6704,56.2969 1255.6704,56.2969 1255.6704,56.2969 C1255.6704,56.2969 1273.6704,56.2969 1273.6704,66.2969 L1273.6704,92.2969 C1273.6704,102.2969 1255.6704,102.2969 1255.6704,102.2969 C1255.6704,102.2969 1237.6704,102.2969 1237.6704,92.2969 L1237.6704,66.2969" fill="#E2E2F0" style="stroke:#181818;stroke-width:1.5;"/><path d="M1237.6704,66.2969 C1237.6704,76.2969 1255.6704,76.2969 1255.6704,76.2969 C1255.6704,76.2969 1273.6704,76.2969 1273.6704,66.2969" fill="none" style="stroke:#181818;stroke-width:1.5;"/></g><g class="participant participant-tail" data-participant="Database"><text fill="#000000" font-family="sans-serif" font-size="14" lengthAdjust="spacing" textLength="66.8008" x="1219.27" y="530.4482">Database</text><path d="M1237.6704,543.75 C1237.6704,533.75 1255.6704,533.75 1255.6704,533.75 C1255.6704,533.75 1273.6704,533.75 1273.6704,543.75 L1273.6704,569.75 C1273.6704,579.75 1255.6704,579.75 1255.6704,579.75 C1255.6704,579.75 1237.6704,579.75 1237.6704,569.75 L1237.6704,543.75" fill="#E2E2F0" style="stroke:#181818;stroke-width:1.5;"/><path d="M1237.6704,543.75 C1237.6704,553.75 1255.6704,553.75 1255.6704,553.75 C1255.6704,553.75 1273.6704,553.75 1273.6704,543.75" fill="none" style="stroke:#181818;stroke-width:1.5;"/></g><g><title>API</title><rect fill="#FFFFFF" height="350.7266" style="stroke:#181818;stroke-width:1;" width="10" x="269.0269" y="149.7266"/></g><g><title>ProductController</title><rect fill="#FFFFFF" height="292.4609" style="stroke:#181818;stroke-width:1;" width="10" x="548.3511" y="178.8594"/></g><g><title>ProductService</title><rect fill="#FFFFFF" height="234.1953" style="stroke:#181818;stroke-width:1;" width="10" x="725.1372" y="207.9922"/></g><g><title>ProductMapper</title><rect fill="#FFFFFF" height="29.1328" style="stroke:#181818;stroke-width:1;" width="10" x="899.8984" y="383.9219"/></g><g><title>ProductRepository</title><rect fill="#FFFFFF" height="117.6641" style="stroke:#181818;stroke-width:1;" width="10" x="1033.5449" y="237.125"/></g><g><title>Database</title><rect fill="#FFFFFF" height="29.1328" style="stroke:#181818;stroke-width:1;" width="10" x="1250.6704" y="296.5234"/></g><g class="message" data-participant-1="User" data-participant-2="API"><polygon fill="#181818" points="257.0269,145.7266,267.0269,149.7266,257.0269,153.7266,261.0269,149.7266" style="stroke:#181818;stroke-width:1;"/><line style="stroke:#181818;stroke-width:1;" x1="23.9551" x2="263.0269" y1="149.7266" y2="149.7266"/><text fill="#000000" font-family="sans-serif" font-size="13" lengthAdjust="spacing" textLength="226.0718" x="30.9551" y="144.6606">GET /products/search?query=term</text></g><g class="message" data-participant-1="API" data-participant-2="ProductController"><polygon fill="#181818" points="536.3511,174.8594,546.3511,178.8594,536.3511,182.8594,540.3511,178.8594" style="stroke:#181818;stroke-width:1;"/><line style="stroke:#181818;stroke-width:1;" x1="279.0269" x2="542.3511" y1="178.8594" y2="178.8594"/><text fill="#000000" font-family="sans-serif" font-size="13" lengthAdjust="spacing" textLength="147.7861" x="286.0269" y="173.7935">searchProducts(query)</text></g><g class="message" data-participant-1="ProductController" data-participant-2="ProductService"><polygon fill="#181818" points="713.1372,203.9922,723.1372,207.9922,713.1372,211.9922,717.1372,207.9922" style="stroke:#181818;stroke-width:1;"/><line style="stroke:#181818;stroke-width:1;" x1="558.3511" x2="719.1372" y1="207.9922" y2="207.9922"/><text fill="#000000" font-family="sans-serif" font-size="13" lengthAdjust="spacing" textLength="147.7861" x="565.3511" y="202.9263">searchProducts(query)</text></g><g class="message" data-participant-1="ProductService" data-participant-2="Repo"><polygon fill="#181818" points="1021.5449,233.125,1031.5449,237.125,1021.5449,241.125,1025.5449,237.125" style="stroke:#181818;stroke-width:1;"/><line style="stroke:#181818;stroke-width:1;" x1="735.1372" x2="1027.5449" y1="237.125" y2="237.125"/><text fill="#000000" font-family="sans-serif" font-size="13" lengthAdjust="spacing" textLength="202.2744" x="742.1372" y="232.0591">findByNameOrCategory(query)</text></g><g class="message" data-participant-1="Repo" data-participant-2="Database"><polygon fill="#181818" points="1238.6704,292.5234,1248.6704,296.5234,1238.6704,300.5234,1242.6704,296.5234" style="stroke:#181818;stroke-width:1;"/><line style="stroke:#181818;stroke-width:1;" x1="1043.5449" x2="1244.6704" y1="296.5234" y2="296.5234"/><text fill="#000000" font-family="sans-serif" font-size="13" lengthAdjust="spacing" textLength="162.8555" x="1050.5449" y="261.1919">SELECT * FROM products</text><text fill="#000000" font-family="sans-serif" font-size="13" lengthAdjust="spacing" textLength="188.1255" x="1050.5449" y="276.3247">WHERE name LIKE '%term%'</text><text fill="#000000" font-family="sans-serif" font-size="13" lengthAdjust="spacing" textLength="179.8862" x="1054.6772" y="291.4575">OR category LIKE '%term%'</text></g><g class="message" data-participant-1="Database" data-participant-2="Repo"><polygon fill="#181818" points="1054.5449,321.6563,1044.5449,325.6563,1054.5449,329.6563,1050.5449,325.6563" style="stroke:#181818;stroke-width:1;"/><line style="stroke:#181818;stroke-width:1;stroke-dasharray:2.0,2.0;" x1="1048.5449" x2="1254.6704" y1="325.6563" y2="325.6563"/><text fill="#000000" font-family="sans-serif" font-size="13" lengthAdjust="spacing" textLength="66.2314" x="1060.5449" y="320.5903">Result Set</text></g><g class="message" data-participant-1="Repo" data-participant-2="ProductService"><polygon fill="#181818" points="746.1372,350.7891,736.1372,354.7891,746.1372,358.7891,742.1372,354.7891" style="stroke:#181818;stroke-width:1;"/><line style="stroke:#181818;stroke-width:1;stroke-dasharray:2.0,2.0;" x1="740.1372" x2="1037.5449" y1="354.7891" y2="354.7891"/><text fill="#000000" font-family="sans-serif" font-size="13" lengthAdjust="spacing" textLength="94.3833" x="752.1372" y="349.7231">List&lt;Product&gt;</text></g><g class="message" data-participant-1="ProductService" data-participant-2="ProductMapper"><polygon fill="#181818" points="887.8984,379.9219,897.8984,383.9219,887.8984,387.9219,891.8984,383.9219" style="stroke:#181818;stroke-width:1;"/><line style="stroke:#181818;stroke-width:1;" x1="735.1372" x2="893.8984" y1="383.9219" y2="383.9219"/><text fill="#000000" font-family="sans-serif" font-size="13" lengthAdjust="spacing" textLength="145.7612" x="742.1372" y="378.856">toDTO(List&lt;Product&gt;)</text></g><g class="message" data-participant-1="ProductMapper" data-participant-2="ProductService"><polygon fill="#181818" points="746.1372,409.0547,736.1372,413.0547,746.1372,417.0547,742.1372,413.0547" style="stroke:#181818;stroke-width:1;"/><line style="stroke:#181818;stroke-width:1;stroke-dasharray:2.0,2.0;" x1="740.1372" x2="903.8984" y1="413.0547" y2="413.0547"/><text fill="#000000" font-family="sans-serif" font-size="13" lengthAdjust="spacing" textLength="122.5669" x="752.1372" y="407.9888">List&lt;ProductDTO&gt;</text></g><g class="message" data-participant-1="ProductService" data-participant-2="ProductController"><polygon fill="#181818" points="569.3511,438.1875,559.3511,442.1875,569.3511,446.1875,565.3511,442.1875" style="stroke:#181818;stroke-width:1;"/><line style="stroke:#181818;stroke-width:1;stroke-dasharray:2.0,2.0;" x1="563.3511" x2="729.1372" y1="442.1875" y2="442.1875"/><text fill="#000000" font-family="sans-serif" font-size="13" lengthAdjust="spacing" textLength="122.5669" x="575.3511" y="437.1216">List&lt;ProductDTO&gt;</text></g><g class="message" data-participant-1="ProductController" data-participant-2="API"><polygon fill="#181818" points="290.0269,467.3203,280.0269,471.3203,290.0269,475.3203,286.0269,471.3203" style="stroke:#181818;stroke-width:1;"/><line style="stroke:#181818;stroke-width:1;stroke-dasharray:2.0,2.0;" x1="284.0269" x2="552.3511" y1="471.3203" y2="471.3203"/><text fill="#000000" font-family="sans-serif" font-size="13" lengthAdjust="spacing" textLength="245.3242" x="296.0269" y="466.2544">ResponseEntity&lt;List&lt;ProductDTO&gt;&gt;</text></g><g class="message" data-participant-1="API" data-participant-2="User"><polygon fill="#181818" points="34.9551,496.4531,24.9551,500.4531,34.9551,504.4531,30.9551,500.4531" style="stroke:#181818;stroke-width:1;"/><line style="stroke:#181818;stroke-width:1;stroke-dasharray:2.0,2.0;" x1="28.9551" x2="273.0269" y1="500.4531" y2="500.4531"/><text fill="#000000" font-family="sans-serif" font-size="13" lengthAdjust="spacing" textLength="186.7798" x="40.9551" y="495.3872">Show filtered list of products</text></g><!--SRC=[ZPDVJy8m5CNV-obkJ0XeGdWtY56OIWH71iONNkfMfCbePrim-_RURjr_ZBnjRS-lvvwT6MvY1YibesDeOCse2lU4qD181U-QAP9GPNZ84oeCFApc99J2A1aNacd-6kF9riwQgHCFMRbyvTQND4cOkWAgeR528che9zMbcu0bKdCqajgpzgqwCdCFX5YJC9nORt0Bpzu6HackroETZNF_VMGglJDC7UnW_4GDoqOXLeFIpYW8ogLkHmyon7KbxqvFkfGAxRAuc5jaHrfw9DeSaBFZ8dfCt-Y1-MgAoY-CgKFBCYEP0fL5PgXUUmjlke4RU0hy9HHvRSN7YnTu890AY_ch1_sUJQtNtmhm0mZTFSszwhhoevGt3Il30TF7s3RCa8Xr9SxbkSWMN9knMvtKnVbutOWQjKA0aREDFsXWkf6x4fAc-5z3I6vuEayhpVtHjWk8xKhKUrRM7qDEfD3C4uQRTDp6dkFMAvpz3mZB_YbioLx-OD5Y_CuiWXXX87TbM-ei5Fu2]--></g></svg>