<svg xmlns="http://www.w3.org/2000/svg" xmlns:xlink="http://www.w3.org/1999/xlink" contentStyleType="text/css" data-diagram-type="SEQUENCE" height="749px" preserveAspectRatio="none" style="width:1400px;height:749px;background:#FFFFFF;" version="1.1" viewBox="0 0 1400 749" width="1400px" zoomAndPan="magnify"><title>Get Product by ID</title><defs/><g><text fill="#000000" font-family="sans-serif" font-size="14" font-weight="bold" lengthAdjust="spacing" textLength="140.041" x="631.9204" y="27.9951">Get Product by ID</text><g><title>API</title><rect fill="#FFFFFF" height="500.8672" style="stroke:#181818;stroke-width:1;" width="10" x="328.623" y="149.7266"/></g><g><title>ProductController</title><rect fill="#FFFFFF" height="435.4688" style="stroke:#181818;stroke-width:1;" width="10" x="621.3345" y="178.8594"/></g><g><title>ProductService</title><rect fill="#FFFFFF" height="302.1328" style="stroke:#181818;stroke-width:1;" width="10" x="791.2886" y="207.9922"/></g><g><title>ProductMapper</title><rect fill="#FFFFFF" height="29.1328" style="stroke:#181818;stroke-width:1;" width="10" x="1032.9795" y="392.9219"/></g><g><title>ProductRepository</title><rect fill="#FFFFFF" height="102.5313" style="stroke:#181818;stroke-width:1;" width="10" x="1166.626" y="237.125"/></g><g><title>Database</title><rect fill="#FFFFFF" height="29.1328" style="stroke:#181818;stroke-width:1;" width="10" x="1358.4814" y="281.3906"/></g><rect fill="none" height="148.4688" style="stroke:#000000;stroke-width:1.5;" width="552.3418" x="551.8931" y="354.6563"/><rect fill="none" height="90.2031" style="stroke:#000000;stroke-width:1.5;" width="395.2271" x="305.5488" y="517.125"/><g><title>User</title><rect fill="#000000" fill-opacity="0.00000" height="550" width="8" x="19.9551" y="118.5938"/><line style="stroke:#181818;stroke-width:0.5;stroke-dasharray:5.0,5.0;" x1="23" x2="23" y1="118.5938" y2="668.5938"/></g><g><title>API</title><rect fill="#000000" fill-opacity="0.00000" height="550" width="8" x="329.623" y="118.5938"/><line style="stroke:#181818;stroke-width:0.5;stroke-dasharray:5.0,5.0;" x1="333.5488" x2="333.5488" y1="118.5938" y2="668.5938"/></g><g><title>ProductController</title><rect fill="#000000" fill-opacity="0.00000" height="550" width="8" x="622.3345" y="118.5938"/><line style="stroke:#181818;stroke-width:0.5;stroke-dasharray:5.0,5.0;" x1="625.8931" x2="625.8931" y1="118.5938" y2="668.5938"/></g><g><title>ProductService</title><rect fill="#000000" fill-opacity="0.00000" height="550" width="8" x="792.2886" y="118.5938"/><line style="stroke:#181818;stroke-width:0.5;stroke-dasharray:5.0,5.0;" x1="795.563" x2="795.563" y1="118.5938" y2="668.5938"/></g><g><title>ProductMapper</title><rect fill="#000000" fill-opacity="0.00000" height="550" width="8" x="1033.9795" y="118.5938"/><line style="stroke:#181818;stroke-width:0.5;stroke-dasharray:5.0,5.0;" x1="1037.7241" x2="1037.7241" y1="118.5938" y2="668.5938"/></g><g><title>ProductRepository</title><rect fill="#000000" fill-opacity="0.00000" height="550" width="8" x="1167.626" y="118.5938"/><line style="stroke:#181818;stroke-width:0.5;stroke-dasharray:5.0,5.0;" x1="1171.2349" x2="1171.2349" y1="118.5938" y2="668.5938"/></g><g><title>Database</title><rect fill="#000000" fill-opacity="0.00000" height="550" width="8" x="1359.4814" y="118.5938"/><line style="stroke:#181818;stroke-width:0.5;stroke-dasharray:5.0,5.0;" x1="1363.0811" x2="1363.0811" y1="118.5938" y2="668.5938"/></g><g class="participant participant-head" data-participant="User"><text fill="#000000" font-family="sans-serif" font-size="14" lengthAdjust="spacing" textLength="31.9102" x="5" y="115.292">User</text><ellipse cx="23.9551" cy="50.7969" fill="#E2E2F0" rx="8" ry="8" style="stroke:#181818;stroke-width:0.5;"/><path d="M23.9551,58.7969 L23.9551,85.7969 M10.9551,66.7969 L36.9551,66.7969 M23.9551,85.7969 L10.9551,100.7969 M23.9551,85.7969 L36.9551,100.7969" fill="none" style="stroke:#181818;stroke-width:0.5;"/></g><g class="participant participant-tail" data-participant="User"><text fill="#000000" font-family="sans-serif" font-size="14" lengthAdjust="spacing" textLength="31.9102" x="5" y="680.5889">User</text><ellipse cx="23.9551" cy="692.3906" fill="#E2E2F0" rx="8" ry="8" style="stroke:#181818;stroke-width:0.5;"/><path d="M23.9551,700.3906 L23.9551,727.3906 M10.9551,708.3906 L36.9551,708.3906 M23.9551,727.3906 L10.9551,742.3906 M23.9551,727.3906 L36.9551,742.3906" fill="none" style="stroke:#181818;stroke-width:0.5;"/></g><g class="participant participant-head" data-participant="API"><rect fill="#E2E2F0" height="30.2969" rx="2.5" ry="2.5" style="stroke:#181818;stroke-width:0.5;" width="36.1484" x="315.5488" y="87.2969"/><text fill="#000000" font-family="sans-serif" font-size="14" lengthAdjust="spacing" textLength="22.1484" x="322.5488" y="107.292">API</text></g><g class="participant participant-tail" data-participant="API"><rect fill="#E2E2F0" height="30.2969" rx="2.5" ry="2.5" style="stroke:#181818;stroke-width:0.5;" width="36.1484" x="315.5488" y="667.5938"/><text fill="#000000" font-family="sans-serif" font-size="14" lengthAdjust="spacing" textLength="22.1484" x="322.5488" y="687.5889">API</text></g><g class="participant participant-head" data-participant="ProductController"><text fill="#000000" font-family="sans-serif" font-size="14" lengthAdjust="spacing" textLength="122.8828" x="561.8931" y="115.292">ProductController</text><ellipse cx="626.3345" cy="86.2969" fill="#E2E2F0" rx="12" ry="12" style="stroke:#181818;stroke-width:0.5;"/><polygon fill="#181818" points="622.3345,74.2969,628.3345,69.2969,626.3345,74.2969,628.3345,79.2969,622.3345,74.2969" style="stroke:#181818;stroke-width:1;"/></g><g class="participant participant-tail" data-participant="ProductController"><text fill="#000000" font-family="sans-serif" font-size="14" lengthAdjust="spacing" textLength="122.8828" x="561.8931" y="680.5889">ProductController</text><ellipse cx="626.3345" cy="699.8906" fill="#E2E2F0" rx="12" ry="12" style="stroke:#181818;stroke-width:0.5;"/><polygon fill="#181818" points="622.3345,687.8906,628.3345,682.8906,626.3345,687.8906,628.3345,692.8906,622.3345,687.8906" style="stroke:#181818;stroke-width:1;"/></g><g class="participant participant-head" data-participant="ProductService"><text fill="#000000" font-family="sans-serif" font-size="14" lengthAdjust="spacing" textLength="105.4512" x="740.563" y="115.292">ProductService</text><ellipse cx="796.2886" cy="86.2969" fill="#E2E2F0" rx="12" ry="12" style="stroke:#181818;stroke-width:0.5;"/><polygon fill="#181818" points="792.2886,74.2969,798.2886,69.2969,796.2886,74.2969,798.2886,79.2969,792.2886,74.2969" style="stroke:#181818;stroke-width:1;"/></g><g class="participant participant-tail" data-participant="ProductService"><text fill="#000000" font-family="sans-serif" font-size="14" lengthAdjust="spacing" textLength="105.4512" x="740.563" y="680.5889">ProductService</text><ellipse cx="796.2886" cy="699.8906" fill="#E2E2F0" rx="12" ry="12" style="stroke:#181818;stroke-width:0.5;"/><polygon fill="#181818" points="792.2886,687.8906,798.2886,682.8906,796.2886,687.8906,798.2886,692.8906,792.2886,687.8906" style="stroke:#181818;stroke-width:1;"/></g><g class="participant participant-head" data-participant="ProductMapper"><text fill="#000000" font-family="sans-serif" font-size="14" lengthAdjust="spacing" textLength="106.5107" x="981.7241" y="115.292">ProductMapper</text><ellipse cx="1037.9795" cy="86.2969" fill="#E2E2F0" rx="12" ry="12" style="stroke:#181818;stroke-width:0.5;"/><polygon fill="#181818" points="1033.9795,74.2969,1039.9795,69.2969,1037.9795,74.2969,1039.9795,79.2969,1033.9795,74.2969" style="stroke:#181818;stroke-width:1;"/></g><g class="participant participant-tail" data-participant="ProductMapper"><text fill="#000000" font-family="sans-serif" font-size="14" lengthAdjust="spacing" textLength="106.5107" x="981.7241" y="680.5889">ProductMapper</text><ellipse cx="1037.9795" cy="699.8906" fill="#E2E2F0" rx="12" ry="12" style="stroke:#181818;stroke-width:0.5;"/><polygon fill="#181818" points="1033.9795,687.8906,1039.9795,682.8906,1037.9795,687.8906,1039.9795,692.8906,1033.9795,687.8906" style="stroke:#181818;stroke-width:1;"/></g><g class="participant participant-head" data-participant="Repo"><text fill="#000000" font-family="sans-serif" font-size="14" lengthAdjust="spacing" textLength="128.7822" x="1104.2349" y="115.292">ProductRepository</text><path d="M1153.626,66.2969 C1153.626,56.2969 1171.626,56.2969 1171.626,56.2969 C1171.626,56.2969 1189.626,56.2969 1189.626,66.2969 L1189.626,92.2969 C1189.626,102.2969 1171.626,102.2969 1171.626,102.2969 C1171.626,102.2969 1153.626,102.2969 1153.626,92.2969 L1153.626,66.2969" fill="#E2E2F0" style="stroke:#181818;stroke-width:1.5;"/><path d="M1153.626,66.2969 C1153.626,76.2969 1171.626,76.2969 1171.626,76.2969 C1171.626,76.2969 1189.626,76.2969 1189.626,66.2969" fill="none" style="stroke:#181818;stroke-width:1.5;"/></g><g class="participant participant-tail" data-participant="Repo"><text fill="#000000" font-family="sans-serif" font-size="14" lengthAdjust="spacing" textLength="128.7822" x="1104.2349" y="680.5889">ProductRepository</text><path d="M1153.626,693.8906 C1153.626,683.8906 1171.626,683.8906 1171.626,683.8906 C1171.626,683.8906 1189.626,683.8906 1189.626,693.8906 L1189.626,719.8906 C1189.626,729.8906 1171.626,729.8906 1171.626,729.8906 C1171.626,729.8906 1153.626,729.8906 1153.626,719.8906 L1153.626,693.8906" fill="#E2E2F0" style="stroke:#181818;stroke-width:1.5;"/><path d="M1153.626,693.8906 C1153.626,703.8906 1171.626,703.8906 1171.626,703.8906 C1171.626,703.8906 1189.626,703.8906 1189.626,693.8906" fill="none" style="stroke:#181818;stroke-width:1.5;"/></g><g class="participant participant-head" data-participant="Database"><text fill="#000000" font-family="sans-serif" font-size="14" lengthAdjust="spacing" textLength="66.8008" x="1327.0811" y="115.292">Database</text><path d="M1345.4814,66.2969 C1345.4814,56.2969 1363.4814,56.2969 1363.4814,56.2969 C1363.4814,56.2969 1381.4814,56.2969 1381.4814,66.2969 L1381.4814,92.2969 C1381.4814,102.2969 1363.4814,102.2969 1363.4814,102.2969 C1363.4814,102.2969 1345.4814,102.2969 1345.4814,92.2969 L1345.4814,66.2969" fill="#E2E2F0" style="stroke:#181818;stroke-width:1.5;"/><path d="M1345.4814,66.2969 C1345.4814,76.2969 1363.4814,76.2969 1363.4814,76.2969 C1363.4814,76.2969 1381.4814,76.2969 1381.4814,66.2969" fill="none" style="stroke:#181818;stroke-width:1.5;"/></g><g class="participant participant-tail" data-participant="Database"><text fill="#000000" font-family="sans-serif" font-size="14" lengthAdjust="spacing" textLength="66.8008" x="1327.0811" y="680.5889">Database</text><path d="M1345.4814,693.8906 C1345.4814,683.8906 1363.4814,683.8906 1363.4814,683.8906 C1363.4814,683.8906 1381.4814,683.8906 1381.4814,693.8906 L1381.4814,719.8906 C1381.4814,729.8906 1363.4814,729.8906 1363.4814,729.8906 C1363.4814,729.8906 1345.4814,729.8906 1345.4814,719.8906 L1345.4814,693.8906" fill="#E2E2F0" style="stroke:#181818;stroke-width:1.5;"/><path d="M1345.4814,693.8906 C1345.4814,703.8906 1363.4814,703.8906 1363.4814,703.8906 C1363.4814,703.8906 1381.4814,703.8906 1381.4814,693.8906" fill="none" style="stroke:#181818;stroke-width:1.5;"/></g><g><title>API</title><rect fill="#FFFFFF" height="500.8672" style="stroke:#181818;stroke-width:1;" width="10" x="328.623" y="149.7266"/></g><g><title>ProductController</title><rect fill="#FFFFFF" height="435.4688" style="stroke:#181818;stroke-width:1;" width="10" x="621.3345" y="178.8594"/></g><g><title>ProductService</title><rect fill="#FFFFFF" height="302.1328" style="stroke:#181818;stroke-width:1;" width="10" x="791.2886" y="207.9922"/></g><g><title>ProductMapper</title><rect fill="#FFFFFF" height="29.1328" style="stroke:#181818;stroke-width:1;" width="10" x="1032.9795" y="392.9219"/></g><g><title>ProductRepository</title><rect fill="#FFFFFF" height="102.5313" style="stroke:#181818;stroke-width:1;" width="10" x="1166.626" y="237.125"/></g><g><title>Database</title><rect fill="#FFFFFF" height="29.1328" style="stroke:#181818;stroke-width:1;" width="10" x="1358.4814" y="281.3906"/></g><g class="message" data-participant-1="User" data-participant-2="API"><polygon fill="#181818" points="316.623,145.7266,326.623,149.7266,316.623,153.7266,320.623,149.7266" style="stroke:#181818;stroke-width:1;"/><line style="stroke:#181818;stroke-width:1;" x1="23.9551" x2="322.623" y1="149.7266" y2="149.7266"/><text fill="#000000" font-family="sans-serif" font-size="13" lengthAdjust="spacing" textLength="124.5854" x="30.9551" y="144.6606">GET /products/{id}</text></g><g class="message" data-participant-1="API" data-participant-2="ProductController"><polygon fill="#181818" points="609.3345,174.8594,619.3345,178.8594,609.3345,182.8594,613.3345,178.8594" style="stroke:#181818;stroke-width:1;"/><line style="stroke:#181818;stroke-width:1;" x1="338.623" x2="615.3345" y1="178.8594" y2="178.8594"/><text fill="#000000" font-family="sans-serif" font-size="13" lengthAdjust="spacing" textLength="93.228" x="345.623" y="173.7935">getProduct(id)</text></g><g class="message" data-participant-1="ProductController" data-participant-2="ProductService"><polygon fill="#181818" points="779.2886,203.9922,789.2886,207.9922,779.2886,211.9922,783.2886,207.9922" style="stroke:#181818;stroke-width:1;"/><line style="stroke:#181818;stroke-width:1;" x1="631.3345" x2="785.2886" y1="207.9922" y2="207.9922"/><text fill="#000000" font-family="sans-serif" font-size="13" lengthAdjust="spacing" textLength="75.3848" x="638.3345" y="202.9263">findById(id)</text></g><g class="message" data-participant-1="ProductService" data-participant-2="Repo"><polygon fill="#181818" points="1154.626,233.125,1164.626,237.125,1154.626,241.125,1158.626,237.125" style="stroke:#181818;stroke-width:1;"/><line style="stroke:#181818;stroke-width:1;" x1="801.2886" x2="1160.626" y1="237.125" y2="237.125"/><text fill="#000000" font-family="sans-serif" font-size="13" lengthAdjust="spacing" textLength="75.3848" x="808.2886" y="232.0591">findById(id)</text></g><g class="message" data-participant-1="Repo" data-participant-2="Database"><polygon fill="#181818" points="1346.4814,277.3906,1356.4814,281.3906,1346.4814,285.3906,1350.4814,281.3906" style="stroke:#181818;stroke-width:1;"/><line style="stroke:#181818;stroke-width:1;" x1="1176.626" x2="1352.4814" y1="281.3906" y2="281.3906"/><text fill="#000000" font-family="sans-serif" font-size="13" lengthAdjust="spacing" textLength="162.8555" x="1183.626" y="261.1919">SELECT * FROM products</text><text fill="#000000" font-family="sans-serif" font-size="13" lengthAdjust="spacing" textLength="90.1431" x="1183.626" y="276.3247">WHERE id = ?</text></g><g class="message" data-participant-1="Database" data-participant-2="Repo"><polygon fill="#181818" points="1187.626,306.5234,1177.626,310.5234,1187.626,314.5234,1183.626,310.5234" style="stroke:#181818;stroke-width:1;"/><line style="stroke:#181818;stroke-width:1;stroke-dasharray:2.0,2.0;" x1="1181.626" x2="1362.4814" y1="310.5234" y2="310.5234"/><text fill="#000000" font-family="sans-serif" font-size="13" lengthAdjust="spacing" textLength="49.8735" x="1193.626" y="305.4575">Product</text></g><g class="message" data-participant-1="Repo" data-participant-2="ProductService"><polygon fill="#181818" points="812.2886,335.6563,802.2886,339.6563,812.2886,343.6563,808.2886,339.6563" style="stroke:#181818;stroke-width:1;"/><line style="stroke:#181818;stroke-width:1;stroke-dasharray:2.0,2.0;" x1="806.2886" x2="1170.626" y1="339.6563" y2="339.6563"/><text fill="#000000" font-family="sans-serif" font-size="13" lengthAdjust="spacing" textLength="126.623" x="818.2886" y="334.5903">Optional&lt;Product&gt;</text></g><path d="M551.8931,354.6563 L616.3359,354.6563 L616.3359,361.7891 L606.3359,371.7891 L551.8931,371.7891 L551.8931,354.6563" fill="#EEEEEE" style="stroke:#000000;stroke-width:1.5;"/><rect fill="none" height="148.4688" style="stroke:#000000;stroke-width:1.5;" width="552.3418" x="551.8931" y="354.6563"/><text fill="#000000" font-family="sans-serif" font-size="13" font-weight="bold" lengthAdjust="spacing" textLength="19.4429" x="566.8931" y="367.7231">alt</text><text fill="#000000" font-family="sans-serif" font-size="11" font-weight="bold" lengthAdjust="spacing" textLength="101.0195" x="631.3359" y="366.8667">[Product Found]</text><g class="message" data-participant-1="ProductService" data-participant-2="ProductMapper"><polygon fill="#181818" points="1020.9795,388.9219,1030.9795,392.9219,1020.9795,396.9219,1024.9795,392.9219" style="stroke:#181818;stroke-width:1;"/><line style="stroke:#181818;stroke-width:1;" x1="801.2886" x2="1026.9795" y1="392.9219" y2="392.9219"/><text fill="#000000" font-family="sans-serif" font-size="13" lengthAdjust="spacing" textLength="212.6909" x="808.2886" y="387.856">productToResponseDto(product)</text></g><g class="message" data-participant-1="ProductMapper" data-participant-2="ProductService"><polygon fill="#181818" points="812.2886,418.0547,802.2886,422.0547,812.2886,426.0547,808.2886,422.0547" style="stroke:#181818;stroke-width:1;"/><line style="stroke:#181818;stroke-width:1;stroke-dasharray:2.0,2.0;" x1="806.2886" x2="1036.9795" y1="422.0547" y2="422.0547"/><text fill="#000000" font-family="sans-serif" font-size="13" lengthAdjust="spacing" textLength="135.9541" x="818.2886" y="416.9888">ProductResponseDto</text></g><g class="message" data-participant-1="ProductService" data-participant-2="ProductController"><polygon fill="#181818" points="642.3345,447.1875,632.3345,451.1875,642.3345,455.1875,638.3345,451.1875" style="stroke:#181818;stroke-width:1;"/><line style="stroke:#181818;stroke-width:1;stroke-dasharray:2.0,2.0;" x1="636.3345" x2="790.2886" y1="451.1875" y2="451.1875"/><text fill="#000000" font-family="sans-serif" font-size="13" lengthAdjust="spacing" textLength="135.9541" x="648.3345" y="446.1216">ProductResponseDto</text></g><line style="stroke:#000000;stroke-width:1;stroke-dasharray:2.0,2.0;" x1="551.8931" x2="1104.2349" y1="460.1875" y2="460.1875"/><text fill="#000000" font-family="sans-serif" font-size="11" font-weight="bold" lengthAdjust="spacing" textLength="126.8706" x="556.8931" y="470.3979">[Product Not Found]</text><g class="message" data-participant-1="ProductService" data-participant-2="ProductController"><polygon fill="#181818" points="642.3345,491.125,632.3345,495.125,642.3345,499.125,638.3345,495.125" style="stroke:#181818;stroke-width:1;"/><line style="stroke:#181818;stroke-width:1;stroke-dasharray:2.0,2.0;" x1="636.3345" x2="790.2886" y1="495.125" y2="495.125"/><text fill="#000000" font-family="sans-serif" font-size="13" lengthAdjust="spacing" textLength="23.7021" x="648.3345" y="490.0591">null</text></g><path d="M305.5488,517.125 L369.9917,517.125 L369.9917,524.2578 L359.9917,534.2578 L305.5488,534.2578 L305.5488,517.125" fill="#EEEEEE" style="stroke:#000000;stroke-width:1.5;"/><rect fill="none" height="90.2031" style="stroke:#000000;stroke-width:1.5;" width="395.2271" x="305.5488" y="517.125"/><text fill="#000000" font-family="sans-serif" font-size="13" font-weight="bold" lengthAdjust="spacing" textLength="19.4429" x="320.5488" y="530.1919">alt</text><text fill="#000000" font-family="sans-serif" font-size="11" font-weight="bold" lengthAdjust="spacing" textLength="101.0195" x="384.9917" y="529.3354">[Product Found]</text><g class="message" data-participant-1="ProductController" data-participant-2="API"><polygon fill="#181818" points="349.623,551.3906,339.623,555.3906,349.623,559.3906,345.623,555.3906" style="stroke:#181818;stroke-width:1;"/><line style="stroke:#181818;stroke-width:1;stroke-dasharray:2.0,2.0;" x1="343.623" x2="620.3345" y1="555.3906" y2="555.3906"/><text fill="#000000" font-family="sans-serif" font-size="13" lengthAdjust="spacing" textLength="258.7114" x="355.623" y="550.3247">ResponseEntity&lt;ProductResponseDto&gt;</text></g><line style="stroke:#000000;stroke-width:1;stroke-dasharray:2.0,2.0;" x1="305.5488" x2="700.7759" y1="564.3906" y2="564.3906"/><text fill="#000000" font-family="sans-serif" font-size="11" font-weight="bold" lengthAdjust="spacing" textLength="126.8706" x="310.5488" y="574.6011">[Product Not Found]</text><g class="message" data-participant-1="ProductController" data-participant-2="API"><polygon fill="#181818" points="349.623,595.3281,339.623,599.3281,349.623,603.3281,345.623,599.3281" style="stroke:#181818;stroke-width:1;"/><line style="stroke:#181818;stroke-width:1;stroke-dasharray:2.0,2.0;" x1="343.623" x2="620.3345" y1="599.3281" y2="599.3281"/><text fill="#000000" font-family="sans-serif" font-size="13" lengthAdjust="spacing" textLength="176.6997" x="355.623" y="594.2622">ResponseEntity.notFound()</text></g><g class="message" data-participant-1="API" data-participant-2="User"><polygon fill="#181818" points="34.9551,646.5938,24.9551,650.5938,34.9551,654.5938,30.9551,650.5938" style="stroke:#181818;stroke-width:1;"/><line style="stroke:#181818;stroke-width:1;stroke-dasharray:2.0,2.0;" x1="28.9551" x2="332.623" y1="650.5938" y2="650.5938"/><text fill="#000000" font-family="sans-serif" font-size="13" lengthAdjust="spacing" textLength="165.6294" x="40.9551" y="630.395">Page with product details</text><text fill="#000000" font-family="sans-serif" font-size="13" lengthAdjust="spacing" textLength="276.5356" x="45.0874" y="645.5278">or Page with message "Product not found"</text></g><!--SRC=[ZLJBJiCm4BpxArOzjKZ07PKYeA5Kee1A4HSkRho09MD7yRQeGlmxwzHvq3IeESNhdV7iP1pIP10cIF2OExLA2PORc8w5a2cv79uzvYAJEUbKPz8IN3vEHUeivSwKYEljqd3dpiuJvckTObNknVfCPXdcFP0U_bI4aYINqcDPdcFcl6OXcz0RLdNBEBu84KJ2yIXeWpEO90iupRPuV_gjrK-OHQybOQ5UX3RkRgbdx3jIBFUr6jIuzgIY3QyvuznC-AQjkjfCrLwwqXwn0sEYC6edlF1152tSMlh0xK_9NNAzW2EucJ_CeFJWrRxS9lC4j89pkAXfAWChXkFwv2X9A6ptnwFtpVkGaNPMcc7S6JK9jhgbgRDsurPM2U2dRS6VP31r76VXvkWpPpsEoVLZSL1mxFeRGzMWZsHxfLUHgzWBP4D_9ssbkYDMUwZHr2c7U_UV5HsaTcMCGCQq5LR1-jVhPdIhsrDgJ2nfsWpRoaS7I3-0-SGwAd3zGSSGpSjMN5bcAcuw-odV4RuqVPIXuAz4KXkEEl1Fgzx-HE_3elpn09yAR-7ONlD4fly5]--></g></svg>