<svg xmlns="http://www.w3.org/2000/svg" xmlns:xlink="http://www.w3.org/1999/xlink" contentStyleType="text/css" data-diagram-type="DESCRIPTION" height="569px" preserveAspectRatio="none" style="width:276px;height:569px;background:#FFFFFF;" version="1.1" viewBox="0 0 276 569" width="276px" zoomAndPan="magnify"><defs/><g><!--cluster Application Server--><g class="cluster" data-entity="Application Server" data-source-line="3" data-uid="ent0002" id="cluster_Application Server"><polygon fill="none" points="16,16,26,6,238,6,238,417.18,228,427.18,16,427.18,16,16" style="stroke:#181818;stroke-width:1;"/><line style="stroke:#181818;stroke-width:1;" x1="228" x2="238" y1="16" y2="6"/><line style="stroke:#181818;stroke-width:1;" x1="16" x2="228" y1="16" y2="16"/><line style="stroke:#181818;stroke-width:1;" x1="228" x2="228" y1="16" y2="427.18"/><text fill="#000000" font-family="sans-serif" font-size="14" font-weight="bold" lengthAdjust="spacing" textLength="146.1797" x="49.9102" y="31.9951">Application Server</text></g><!--cluster Database Server--><g class="cluster" data-entity="Database Server" data-source-line="10" data-uid="ent0007" id="cluster_Database Server"><polygon fill="none" points="52,461.18,62,451.18,259,451.18,259,542.48,249,552.48,52,552.48,52,461.18" style="stroke:#181818;stroke-width:1;"/><line style="stroke:#181818;stroke-width:1;" x1="249" x2="259" y1="461.18" y2="451.18"/><line style="stroke:#181818;stroke-width:1;" x1="52" x2="249" y1="461.18" y2="461.18"/><line style="stroke:#181818;stroke-width:1;" x1="249" x2="249" y1="461.18" y2="552.48"/><text fill="#000000" font-family="sans-serif" font-size="14" font-weight="bold" lengthAdjust="spacing" textLength="131.3867" x="85.8066" y="477.1751">Database Server</text></g><!--entity thymeleaf--><g class="entity" data-entity="thymeleaf" data-source-line="4" data-uid="ent0003" id="entity_thymeleaf"><rect fill="#F1F1F1" height="46.2969" rx="2.5" ry="2.5" style="stroke:#181818;stroke-width:0.5;" width="166.4033" x="43.8" y="46"/><rect fill="#F1F1F1" height="10" style="stroke:#181818;stroke-width:0.5;" width="15" x="190.2033" y="51"/><rect fill="#F1F1F1" height="2" style="stroke:#181818;stroke-width:0.5;" width="4" x="188.2033" y="53"/><rect fill="#F1F1F1" height="2" style="stroke:#181818;stroke-width:0.5;" width="4" x="188.2033" y="57"/><text fill="#000000" font-family="sans-serif" font-size="14" lengthAdjust="spacing" textLength="126.4033" x="58.8" y="78.9951">Thymeleaf Engine</text></g><!--entity ctrl--><g class="entity" data-entity="ctrl" data-source-line="5" data-uid="ent0004" id="entity_ctrl"><rect fill="#F1F1F1" height="46.2969" rx="2.5" ry="2.5" style="stroke:#181818;stroke-width:0.5;" width="116.4668" x="68.77" y="152.29"/><rect fill="#F1F1F1" height="10" style="stroke:#181818;stroke-width:0.5;" width="15" x="165.2368" y="157.29"/><rect fill="#F1F1F1" height="2" style="stroke:#181818;stroke-width:0.5;" width="4" x="163.2368" y="159.29"/><rect fill="#F1F1F1" height="2" style="stroke:#181818;stroke-width:0.5;" width="4" x="163.2368" y="163.29"/><text fill="#000000" font-family="sans-serif" font-size="14" lengthAdjust="spacing" textLength="76.4668" x="83.77" y="185.2851">Controllers</text></g><!--entity svc--><g class="entity" data-entity="svc" data-source-line="6" data-uid="ent0005" id="entity_svc"><rect fill="#F1F1F1" height="46.2969" rx="2.5" ry="2.5" style="stroke:#181818;stroke-width:0.5;" width="99.0352" x="77.48" y="258.59"/><rect fill="#F1F1F1" height="10" style="stroke:#181818;stroke-width:0.5;" width="15" x="156.5152" y="263.59"/><rect fill="#F1F1F1" height="2" style="stroke:#181818;stroke-width:0.5;" width="4" x="154.5152" y="265.59"/><rect fill="#F1F1F1" height="2" style="stroke:#181818;stroke-width:0.5;" width="4" x="154.5152" y="269.59"/><text fill="#000000" font-family="sans-serif" font-size="14" lengthAdjust="spacing" textLength="59.0352" x="92.48" y="291.5851">Services</text></g><!--entity repo--><g class="entity" data-entity="repo" data-source-line="7" data-uid="ent0006" id="entity_repo"><rect fill="#F1F1F1" height="46.2969" rx="2.5" ry="2.5" style="stroke:#181818;stroke-width:0.5;" width="126.584" x="63.71" y="364.89"/><rect fill="#F1F1F1" height="10" style="stroke:#181818;stroke-width:0.5;" width="15" x="170.294" y="369.89"/><rect fill="#F1F1F1" height="2" style="stroke:#181818;stroke-width:0.5;" width="4" x="168.294" y="371.89"/><rect fill="#F1F1F1" height="2" style="stroke:#181818;stroke-width:0.5;" width="4" x="168.294" y="375.89"/><text fill="#000000" font-family="sans-serif" font-size="14" lengthAdjust="spacing" textLength="86.584" x="78.71" y="397.8851">Repositories</text></g><!--entity postgres--><g class="entity" data-entity="postgres" data-source-line="11" data-uid="ent0008" id="entity_postgres"><path d="M76.62,501.18 C76.62,491.18 126.9965,491.18 126.9965,491.18 C126.9965,491.18 177.3729,491.18 177.3729,501.18 L177.3729,526.4769 C177.3729,536.4769 126.9965,536.4769 126.9965,536.4769 C126.9965,536.4769 76.62,536.4769 76.62,526.4769 L76.62,501.18" fill="#F1F1F1" style="stroke:#181818;stroke-width:0.5;"/><path d="M76.62,501.18 C76.62,511.18 126.9965,511.18 126.9965,511.18 C126.9965,511.18 177.3729,511.18 177.3729,501.18" fill="none" style="stroke:#181818;stroke-width:0.5;"/><text fill="#000000" font-family="sans-serif" font-size="14" lengthAdjust="spacing" textLength="80.7529" x="86.62" y="528.1751">PostgreSQL</text></g><!--link thymeleaf to ctrl--><g class="link" data-entity-1="thymeleaf" data-entity-2="ctrl" data-source-line="14" data-uid="lnk9" id="link_thymeleaf_ctrl"><path d="M127,92.77 C127,110.27 127,128.37 127,145.85" fill="none" id="thymeleaf-to-ctrl" style="stroke:#181818;stroke-width:1;"/><polygon fill="#181818" points="127,151.85,131,142.85,127,146.85,123,142.85,127,151.85" style="stroke:#181818;stroke-width:1;"/></g><!--link ctrl to svc--><g class="link" data-entity-1="ctrl" data-entity-2="svc" data-source-line="15" data-uid="lnk10" id="link_ctrl_svc"><path d="M127,199.07 C127,216.57 127,234.67 127,252.15" fill="none" id="ctrl-to-svc" style="stroke:#181818;stroke-width:1;"/><polygon fill="#181818" points="127,258.15,131,249.15,127,253.15,123,249.15,127,258.15" style="stroke:#181818;stroke-width:1;"/></g><!--link svc to repo--><g class="link" data-entity-1="svc" data-entity-2="repo" data-source-line="16" data-uid="lnk11" id="link_svc_repo"><path d="M127,305.37 C127,322.86 127,340.97 127,358.45" fill="none" id="svc-to-repo" style="stroke:#181818;stroke-width:1;"/><polygon fill="#181818" points="127,364.45,131,355.45,127,359.45,123,355.45,127,364.45" style="stroke:#181818;stroke-width:1;"/></g><!--link repo to postgres--><g class="link" data-entity-1="repo" data-entity-2="postgres" data-source-line="17" data-uid="lnk12" id="link_repo_postgres"><path d="M127,411.45 C127,434.03 127,462.63 127,485" fill="none" id="repo-to-postgres" style="stroke:#181818;stroke-width:1;"/><polygon fill="#181818" points="127,491,131,482,127,486,123,482,127,491" style="stroke:#181818;stroke-width:1;"/></g><!--SRC=[NOun3i8m34NtdiBgteK3825WOm3AXXX2Qaf46aUEgLGXxawJaWwD52l_vzj-uMMSLwmwqDHvSkYabi4Yl3kxAWf73KAvyTuQhSIGWngvHoxXKy1uvYQuNfv3XnRL0_QkDGvle098DfVfBJbXiXOvfA0MjijCN6KqJe7Gw-N_6Jq58yJcd-7HABwPUgT4tLN01NAJxV98GLh6-dGeOxUVP8WJPcweglK45qjIaMIywPqsnf9Kdl03]--></g></svg>