<svg xmlns="http://www.w3.org/2000/svg" xmlns:xlink="http://www.w3.org/1999/xlink" contentStyleType="text/css" data-diagram-type="CLASS" height="855px" preserveAspectRatio="none" style="width:477px;height:855px;background:#FFFFFF;" version="1.1" viewBox="0 0 477 855" width="477px" zoomAndPan="magnify"><defs/><g><!--class User--><g class="entity" data-entity="User" data-source-line="1" data-uid="ent0002" id="entity_User"><rect fill="#F1F1F1" height="96.8906" rx="2.5" ry="2.5" style="stroke:#181818;stroke-width:0.5;" width="115.0586" x="81.14" y="403.67"/><ellipse cx="119.1568" cy="419.67" fill="#ADD1B2" rx="11" ry="11" style="stroke:#181818;stroke-width:1;"/><path d="M122.1255,425.3106 Q121.5474,425.6075 120.9068,425.7481 Q120.2662,425.9044 119.563,425.9044 Q117.063,425.9044 115.7349,424.2637 Q114.4224,422.6075 114.4224,419.4825 Q114.4224,416.3575 115.7349,414.7012 Q117.063,413.045 119.563,413.045 Q120.2662,413.045 120.9068,413.2012 Q121.563,413.3575 122.1255,413.6544 L122.1255,416.3731 Q121.5005,415.795 120.9068,415.5294 Q120.313,415.2481 119.688,415.2481 Q118.3443,415.2481 117.6568,416.3262 Q116.9693,417.3887 116.9693,419.4825 Q116.9693,421.5762 117.6568,422.6544 Q118.3443,423.7169 119.688,423.7169 Q120.313,423.7169 120.9068,423.4512 Q121.5005,423.17 122.1255,422.5919 L122.1255,425.3106 Z " fill="#000000"/><text fill="#000000" font-family="sans-serif" font-size="14" lengthAdjust="spacing" textLength="31.9102" x="138.2716" y="424.5167">User</text><line style="stroke:#181818;stroke-width:0.5;" x1="82.14" x2="195.1986" y1="435.67" y2="435.67"/><ellipse cx="92.14" cy="449.3184" fill="none" rx="3" ry="3" style="stroke:#038048;stroke-width:1;"/><text fill="#000000" font-family="sans-serif" font-size="14" lengthAdjust="spacing" textLength="40.1953" x="101.14" y="452.6651">id: int</text><ellipse cx="92.14" cy="465.6153" fill="none" rx="3" ry="3" style="stroke:#038048;stroke-width:1;"/><text fill="#000000" font-family="sans-serif" font-size="14" lengthAdjust="spacing" textLength="89.0586" x="101.14" y="468.962">name: string</text><ellipse cx="92.14" cy="481.9122" fill="none" rx="3" ry="3" style="stroke:#038048;stroke-width:1;"/><text fill="#000000" font-family="sans-serif" font-size="14" lengthAdjust="spacing" textLength="87.9648" x="101.14" y="485.2589">email: string</text><line style="stroke:#181818;stroke-width:0.5;" x1="82.14" x2="195.1986" y1="492.5606" y2="492.5606"/></g><!--class Sale--><g class="entity" data-entity="Sale" data-source-line="7" data-uid="ent0003" id="entity_Sale"><rect fill="#F1F1F1" height="129.4844" rx="2.5" ry="2.5" style="stroke:#181818;stroke-width:0.5;" width="210.1533" x="136.59" y="197.19"/><ellipse cx="222.4323" cy="213.19" fill="#ADD1B2" rx="11" ry="11" style="stroke:#181818;stroke-width:1;"/><path d="M225.401,218.8306 Q224.8229,219.1275 224.1823,219.2681 Q223.5417,219.4244 222.8385,219.4244 Q220.3385,219.4244 219.0104,217.7837 Q217.6979,216.1275 217.6979,213.0025 Q217.6979,209.8775 219.0104,208.2212 Q220.3385,206.565 222.8385,206.565 Q223.5417,206.565 224.1823,206.7212 Q224.8385,206.8775 225.401,207.1744 L225.401,209.8931 Q224.776,209.315 224.1823,209.0494 Q223.5885,208.7681 222.9635,208.7681 Q221.6198,208.7681 220.9323,209.8462 Q220.2448,210.9087 220.2448,213.0025 Q220.2448,215.0962 220.9323,216.1744 Q221.6198,217.2369 222.9635,217.2369 Q223.5885,217.2369 224.1823,216.9712 Q224.776,216.69 225.401,216.1119 L225.401,218.8306 Z " fill="#000000"/><text fill="#000000" font-family="sans-serif" font-size="14" lengthAdjust="spacing" textLength="29.9688" x="242.9323" y="218.0367">Sale</text><line style="stroke:#181818;stroke-width:0.5;" x1="137.59" x2="345.7433" y1="229.19" y2="229.19"/><ellipse cx="147.59" cy="242.8384" fill="none" rx="3" ry="3" style="stroke:#038048;stroke-width:1;"/><text fill="#000000" font-family="sans-serif" font-size="14" lengthAdjust="spacing" textLength="40.1953" x="156.59" y="246.1851">id: int</text><ellipse cx="147.59" cy="259.1353" fill="none" rx="3" ry="3" style="stroke:#038048;stroke-width:1;"/><text fill="#000000" font-family="sans-serif" font-size="14" lengthAdjust="spacing" textLength="74.1973" x="156.59" y="262.482">date: Date</text><ellipse cx="147.59" cy="275.4322" fill="none" rx="3" ry="3" style="stroke:#038048;stroke-width:1;"/><text fill="#000000" font-family="sans-serif" font-size="14" lengthAdjust="spacing" textLength="184.1533" x="156.59" y="278.7789">items : List&lt;SaleProduct&gt;</text><ellipse cx="147.59" cy="291.7291" fill="none" rx="3" ry="3" style="stroke:#038048;stroke-width:1;"/><text fill="#000000" font-family="sans-serif" font-size="14" lengthAdjust="spacing" textLength="127.6475" x="156.59" y="295.0757">totalAmount: float</text><ellipse cx="147.59" cy="308.0259" fill="none" rx="3" ry="3" style="stroke:#038048;stroke-width:1;"/><text fill="#000000" font-family="sans-serif" font-size="14" lengthAdjust="spacing" textLength="130.5732" x="156.59" y="311.3726">processedBy: User</text><line style="stroke:#181818;stroke-width:0.5;" x1="137.59" x2="345.7433" y1="318.6744" y2="318.6744"/></g><!--class Product--><g class="entity" data-entity="Product" data-source-line="15" data-uid="ent0004" id="entity_Product"><rect fill="#F1F1F1" height="129.4844" rx="2.5" ry="2.5" style="stroke:#181818;stroke-width:0.5;" width="262.6328" x="202.35" y="561.56"/><ellipse cx="302.5614" cy="577.56" fill="#ADD1B2" rx="11" ry="11" style="stroke:#181818;stroke-width:1;"/><path d="M305.5302,583.2006 Q304.9521,583.4975 304.3114,583.6381 Q303.6708,583.7944 302.9677,583.7944 Q300.4677,583.7944 299.1396,582.1538 Q297.8271,580.4975 297.8271,577.3725 Q297.8271,574.2475 299.1396,572.5913 Q300.4677,570.935 302.9677,570.935 Q303.6708,570.935 304.3114,571.0913 Q304.9677,571.2475 305.5302,571.5444 L305.5302,574.2631 Q304.9052,573.685 304.3114,573.4194 Q303.7177,573.1381 303.0927,573.1381 Q301.7489,573.1381 301.0614,574.2163 Q300.3739,575.2788 300.3739,577.3725 Q300.3739,579.4663 301.0614,580.5444 Q301.7489,581.6069 303.0927,581.6069 Q303.7177,581.6069 304.3114,581.3413 Q304.9052,581.06 305.5302,580.4819 L305.5302,583.2006 Z " fill="#000000"/><text fill="#000000" font-family="sans-serif" font-size="14" lengthAdjust="spacing" textLength="53.71" x="323.0614" y="582.4067">Product</text><line style="stroke:#181818;stroke-width:0.5;" x1="203.35" x2="463.9828" y1="593.56" y2="593.56"/><ellipse cx="213.35" cy="607.2084" fill="none" rx="3" ry="3" style="stroke:#038048;stroke-width:1;"/><text fill="#000000" font-family="sans-serif" font-size="14" lengthAdjust="spacing" textLength="40.1953" x="222.35" y="610.5551">id: int</text><ellipse cx="213.35" cy="623.5053" fill="none" rx="3" ry="3" style="stroke:#038048;stroke-width:1;"/><text fill="#000000" font-family="sans-serif" font-size="14" lengthAdjust="spacing" textLength="89.0586" x="222.35" y="626.852">name: string</text><ellipse cx="213.35" cy="639.8022" fill="none" rx="3" ry="3" style="stroke:#038048;stroke-width:1;"/><text fill="#000000" font-family="sans-serif" font-size="14" lengthAdjust="spacing" textLength="75.4619" x="222.35" y="643.1489">price: float</text><ellipse cx="213.35" cy="656.0991" fill="none" rx="3" ry="3" style="stroke:#038048;stroke-width:1;"/><text fill="#000000" font-family="sans-serif" font-size="14" lengthAdjust="spacing" textLength="236.6328" x="222.35" y="659.4457">category: List&lt;ProductCategory&gt;</text><ellipse cx="213.35" cy="672.3959" fill="none" rx="3" ry="3" style="stroke:#038048;stroke-width:1;"/><text fill="#000000" font-family="sans-serif" font-size="14" lengthAdjust="spacing" textLength="125.0703" x="222.35" y="675.7426">stockQuantity: int</text><line style="stroke:#181818;stroke-width:0.5;" x1="203.35" x2="463.9828" y1="683.0444" y2="683.0444"/></g><!--class ProductCategory--><g class="entity" data-entity="ProductCategory" data-source-line="23" data-uid="ent0005" id="entity_ProductCategory"><rect fill="#F1F1F1" height="80.5938" rx="2.5" ry="2.5" style="stroke:#181818;stroke-width:0.5;" width="149.6602" x="258.84" y="768.05"/><ellipse cx="273.84" cy="784.05" fill="#ADD1B2" rx="11" ry="11" style="stroke:#181818;stroke-width:1;"/><path d="M276.8088,789.6906 Q276.2306,789.9875 275.59,790.1281 Q274.9494,790.2844 274.2463,790.2844 Q271.7463,790.2844 270.4181,788.6438 Q269.1056,786.9875 269.1056,783.8625 Q269.1056,780.7375 270.4181,779.0813 Q271.7463,777.425 274.2463,777.425 Q274.9494,777.425 275.59,777.5813 Q276.2463,777.7375 276.8088,778.0344 L276.8088,780.7531 Q276.1838,780.175 275.59,779.9094 Q274.9963,779.6281 274.3713,779.6281 Q273.0275,779.6281 272.34,780.7063 Q271.6525,781.7688 271.6525,783.8625 Q271.6525,785.9563 272.34,787.0344 Q273.0275,788.0969 274.3713,788.0969 Q274.9963,788.0969 275.59,787.8313 Q276.1838,787.55 276.8088,786.9719 L276.8088,789.6906 Z " fill="#000000"/><text fill="#000000" font-family="sans-serif" font-size="14" lengthAdjust="spacing" textLength="117.6602" x="287.84" y="788.8967">ProductCategory</text><line style="stroke:#181818;stroke-width:0.5;" x1="259.84" x2="407.5002" y1="800.05" y2="800.05"/><ellipse cx="269.84" cy="813.6984" fill="none" rx="3" ry="3" style="stroke:#038048;stroke-width:1;"/><text fill="#000000" font-family="sans-serif" font-size="14" lengthAdjust="spacing" textLength="40.1953" x="278.84" y="817.0451">id: int</text><ellipse cx="269.84" cy="829.9953" fill="none" rx="3" ry="3" style="stroke:#038048;stroke-width:1;"/><text fill="#000000" font-family="sans-serif" font-size="14" lengthAdjust="spacing" textLength="89.0586" x="278.84" y="833.342">name: string</text><line style="stroke:#181818;stroke-width:0.5;" x1="259.84" x2="407.5002" y1="840.6438" y2="840.6438"/></g><!--class SaleProduct--><g class="entity" data-entity="SaleProduct" data-source-line="28" data-uid="ent0006" id="entity_SaleProduct"><rect fill="#F1F1F1" height="96.8906" rx="2.5" ry="2.5" style="stroke:#181818;stroke-width:0.5;" width="147.4814" x="259.93" y="403.67"/><ellipse cx="289.2412" cy="419.67" fill="#ADD1B2" rx="11" ry="11" style="stroke:#181818;stroke-width:1;"/><path d="M292.21,425.3106 Q291.6319,425.6075 290.9912,425.7481 Q290.3506,425.9044 289.6475,425.9044 Q287.1475,425.9044 285.8194,424.2637 Q284.5069,422.6075 284.5069,419.4825 Q284.5069,416.3575 285.8194,414.7012 Q287.1475,413.045 289.6475,413.045 Q290.3506,413.045 290.9912,413.2012 Q291.6475,413.3575 292.21,413.6544 L292.21,416.3731 Q291.585,415.795 290.9912,415.5294 Q290.3975,415.2481 289.7725,415.2481 Q288.4287,415.2481 287.7412,416.3262 Q287.0537,417.3887 287.0537,419.4825 Q287.0537,421.5762 287.7412,422.6544 Q288.4287,423.7169 289.7725,423.7169 Q290.3975,423.7169 290.9912,423.4512 Q291.585,423.17 292.21,422.5919 L292.21,425.3106 Z " fill="#000000"/><text fill="#000000" font-family="sans-serif" font-size="14" lengthAdjust="spacing" textLength="83.6787" x="306.4215" y="424.5167">SaleProduct</text><line style="stroke:#181818;stroke-width:0.5;" x1="260.93" x2="406.4114" y1="435.67" y2="435.67"/><ellipse cx="270.93" cy="449.3184" fill="none" rx="3" ry="3" style="stroke:#038048;stroke-width:1;"/><text fill="#000000" font-family="sans-serif" font-size="14" lengthAdjust="spacing" textLength="121.4814" x="279.93" y="452.6651">product : Product</text><ellipse cx="270.93" cy="465.6153" fill="none" rx="3" ry="3" style="stroke:#038048;stroke-width:1;"/><text fill="#000000" font-family="sans-serif" font-size="14" lengthAdjust="spacing" textLength="85.7842" x="279.93" y="468.962">quantity: int</text><ellipse cx="270.93" cy="481.9122" fill="none" rx="3" ry="3" style="stroke:#038048;stroke-width:1;"/><text fill="#000000" font-family="sans-serif" font-size="14" lengthAdjust="spacing" textLength="100.748" x="279.93" y="485.2589">subTotal: float</text><line style="stroke:#181818;stroke-width:0.5;" x1="260.93" x2="406.4114" y1="492.5606" y2="492.5606"/></g><!--class Return--><g class="entity" data-entity="Return" data-source-line="34" data-uid="ent0007" id="entity_Return"><rect fill="#F1F1F1" height="113.1875" rx="2.5" ry="2.5" style="stroke:#181818;stroke-width:0.5;" width="210.1533" x="136.59" y="7"/><ellipse cx="213.7506" cy="23" fill="#ADD1B2" rx="11" ry="11" style="stroke:#181818;stroke-width:1;"/><path d="M216.7194,28.6406 Q216.1413,28.9375 215.5006,29.0781 Q214.86,29.2344 214.1569,29.2344 Q211.6569,29.2344 210.3288,27.5938 Q209.0163,25.9375 209.0163,22.8125 Q209.0163,19.6875 210.3288,18.0313 Q211.6569,16.375 214.1569,16.375 Q214.86,16.375 215.5006,16.5313 Q216.1569,16.6875 216.7194,16.9844 L216.7194,19.7031 Q216.0944,19.125 215.5006,18.8594 Q214.9069,18.5781 214.2819,18.5781 Q212.9381,18.5781 212.2506,19.6563 Q211.5631,20.7188 211.5631,22.8125 Q211.5631,24.9063 212.2506,25.9844 Q212.9381,27.0469 214.2819,27.0469 Q214.9069,27.0469 215.5006,26.7813 Q216.0944,26.5 216.7194,25.9219 L216.7194,28.6406 Z " fill="#000000"/><text fill="#000000" font-family="sans-serif" font-size="14" lengthAdjust="spacing" textLength="47.332" x="234.2506" y="27.8467">Return</text><line style="stroke:#181818;stroke-width:0.5;" x1="137.59" x2="345.7433" y1="39" y2="39"/><ellipse cx="147.59" cy="52.6484" fill="none" rx="3" ry="3" style="stroke:#038048;stroke-width:1;"/><text fill="#000000" font-family="sans-serif" font-size="14" lengthAdjust="spacing" textLength="40.1953" x="156.59" y="55.9951">id: int</text><ellipse cx="147.59" cy="68.9453" fill="none" rx="3" ry="3" style="stroke:#038048;stroke-width:1;"/><text fill="#000000" font-family="sans-serif" font-size="14" lengthAdjust="spacing" textLength="74.1973" x="156.59" y="72.292">date: Date</text><ellipse cx="147.59" cy="85.2422" fill="none" rx="3" ry="3" style="stroke:#038048;stroke-width:1;"/><text fill="#000000" font-family="sans-serif" font-size="14" lengthAdjust="spacing" textLength="184.1533" x="156.59" y="88.5889">items : List&lt;SaleProduct&gt;</text><ellipse cx="147.59" cy="101.5391" fill="none" rx="3" ry="3" style="stroke:#038048;stroke-width:1;"/><text fill="#000000" font-family="sans-serif" font-size="14" lengthAdjust="spacing" textLength="67.5117" x="156.59" y="104.8857">sale: Sale</text><line style="stroke:#181818;stroke-width:0.5;" x1="137.59" x2="345.7433" y1="112.1875" y2="112.1875"/></g><!--reverse link Sale to SaleProduct--><g class="link" data-entity-1="Sale" data-entity-2="SaleProduct" data-source-line="41" data-uid="lnk8" id="link_Sale_SaleProduct"><path codeLine="41" d="M278.3446,337.9486 C290.5346,362.8586 298.96,380.11 310.25,403.21" fill="none" id="Sale-backto-SaleProduct" style="stroke:#181818;stroke-width:1;"/><polygon fill="none" points="273.07,327.17,272.1145,334.3175,278.3446,337.9486,279.3002,330.8011,273.07,327.17" style="stroke:#181818;stroke-width:1;"/><text fill="#000000" font-family="sans-serif" font-size="13" lengthAdjust="spacing" textLength="36.1436" x="294.67" y="369.7369">items</text><text fill="#000000" font-family="sans-serif" font-size="13" lengthAdjust="spacing" textLength="8.271" x="267.9099" y="346.7448">1</text><text fill="#000000" font-family="sans-serif" font-size="13" lengthAdjust="spacing" textLength="6.5" x="300.7333" y="392.7064">*</text></g><!--link SaleProduct to Product--><g class="link" data-entity-1="SaleProduct" data-entity-2="Product" data-source-line="42" data-uid="lnk9" id="link_SaleProduct_Product"><path codeLine="42" d="M333.67,500.62 C333.67,519.34 333.67,535.12 333.67,555.19" fill="none" id="SaleProduct-to-Product" style="stroke:#181818;stroke-width:1;"/><polygon fill="#181818" points="333.67,561.19,337.67,552.19,333.67,556.19,329.67,552.19,333.67,561.19" style="stroke:#181818;stroke-width:1;"/><text fill="#000000" font-family="sans-serif" font-size="13" lengthAdjust="spacing" textLength="8.271" x="325.1265" y="520.5719">1</text><text fill="#000000" font-family="sans-serif" font-size="13" lengthAdjust="spacing" textLength="8.271" x="325.2477" y="550.3222">1</text></g><!--link Sale to User--><g class="link" data-entity-1="Sale" data-entity-2="User" data-source-line="43" data-uid="lnk10" id="link_Sale_User"><path codeLine="43" d="M206.51,327.17 C192.88,352.08 180.4101,374.8465 167.7701,397.9465" fill="none" id="Sale-to-User" style="stroke:#181818;stroke-width:1;"/><polygon fill="#181818" points="164.89,403.21,172.7192,397.2348,167.2901,398.8237,165.7012,393.3946,164.89,403.21" style="stroke:#181818;stroke-width:1;"/><text fill="#000000" font-family="sans-serif" font-size="13" lengthAdjust="spacing" textLength="83.1035" x="191.67" y="369.7369">processedBy</text><text fill="#000000" font-family="sans-serif" font-size="13" lengthAdjust="spacing" textLength="8.271" x="194.4859" y="346.7448">1</text><text fill="#000000" font-family="sans-serif" font-size="13" lengthAdjust="spacing" textLength="8.271" x="159.8941" y="392.7064">1</text></g><!--link Return to Sale--><g class="link" data-entity-1="Return" data-entity-2="Sale" data-source-line="45" data-uid="lnk11" id="link_Return_Sale"><path codeLine="45" d="M241.67,120.59 C241.67,144.39 241.67,166.28 241.67,190.89" fill="none" id="Return-to-Sale" style="stroke:#181818;stroke-width:1;"/><polygon fill="#181818" points="241.67,196.89,245.67,187.89,241.67,191.89,237.67,187.89,241.67,196.89" style="stroke:#181818;stroke-width:1;"/><text fill="#000000" font-family="sans-serif" font-size="13" lengthAdjust="spacing" textLength="76.4194" x="242.67" y="163.2569">originalSale</text><text fill="#000000" font-family="sans-serif" font-size="13" lengthAdjust="spacing" textLength="8.271" x="233.2236" y="140.122">1</text><text fill="#000000" font-family="sans-serif" font-size="13" lengthAdjust="spacing" textLength="8.271" x="233.2477" y="186.0299">1</text></g><!--reverse link Return to SaleProduct--><g class="link" data-entity-1="Return" data-entity-2="SaleProduct" data-source-line="46" data-uid="lnk12" id="link_Return_SaleProduct"><path codeLine="46" d="M321.3753,129.0253 C342.6953,150.3453 354.6,168.11 364.67,197.19 C388.58,266.22 368.96,351.38 351.89,403.44" fill="none" id="Return-backto-SaleProduct" style="stroke:#181818;stroke-width:1;"/><polygon fill="none" points="312.89,120.54,314.3042,127.6111,321.3753,129.0253,319.9611,121.9542,312.89,120.54" style="stroke:#181818;stroke-width:1;"/><text fill="#000000" font-family="sans-serif" font-size="13" lengthAdjust="spacing" textLength="92.8789" x="376.67" y="266.4969">returnedItems</text><text fill="#000000" font-family="sans-serif" font-size="13" lengthAdjust="spacing" textLength="8.271" x="312.6784" y="140.0662">1</text><text fill="#000000" font-family="sans-serif" font-size="13" lengthAdjust="spacing" textLength="6.5" x="348.0654" y="392.6166">*</text></g><!--link Return to User--><g class="link" data-entity-1="Return" data-entity-2="User" data-source-line="47" data-uid="lnk13" id="link_Return_User"><path codeLine="47" d="M136.34,105.35 C96.78,126.42 56.01,156.45 33.67,197.19 C6,247.65 13.91,272.62 33.67,326.67 C44.15,355.35 60.3637,377.6047 80.3637,398.8147" fill="none" id="Return-to-User" style="stroke:#181818;stroke-width:1;"/><polygon fill="#181818" points="84.48,403.18,81.2158,393.8878,81.0498,399.5422,75.3953,399.3762,84.48,403.18" style="stroke:#181818;stroke-width:1;"/><text fill="#000000" font-family="sans-serif" font-size="13" lengthAdjust="spacing" textLength="83.1035" x="34.67" y="266.4969">processedBy</text><text fill="#000000" font-family="sans-serif" font-size="13" lengthAdjust="spacing" textLength="8.271" x="120.3213" y="104.9375">1</text><text fill="#000000" font-family="sans-serif" font-size="13" lengthAdjust="spacing" textLength="8.271" x="68.679" y="392.6723">1</text></g><!--link Product to ProductCategory--><g class="link" data-entity-1="Product" data-entity-2="ProductCategory" data-source-line="49" data-uid="lnk14" id="link_Product_ProductCategory"><path codeLine="49" d="M333.67,691.54 C333.67,716.99 333.67,745.44 333.67,767.77" fill="none" id="Product-ProductCategory" style="stroke:#181818;stroke-width:1;"/><text fill="#000000" font-family="sans-serif" font-size="13" lengthAdjust="spacing" textLength="68.1421" x="334.67" y="734.1169">categories</text><text fill="#000000" font-family="sans-serif" font-size="13" lengthAdjust="spacing" textLength="6.5" x="327.3868" y="711.1148">*</text><text fill="#000000" font-family="sans-serif" font-size="13" lengthAdjust="spacing" textLength="6.5" x="327.2145" y="756.8852">*</text></g><!--SRC=[fPAxJiKm38RtF8NLyQ0Eh14w4fS5YO7h0uJK74MaIOdTeKAyEur9ItkeO61fQlltxoyNwmqHF14cU5S09wxHu0Bdts1Qr42SN3Za65lZ_9puKCfAxuFn-AEtCJpsNerVAJ2s11fk7F5Prj-csFIMzxd8aOq_RsCVMCEBZqOCkXGj4c5pCMZ1-nvOcl_axPApkB2q8yqXfg5m59lBaXKMucXVxteJsF7mPNmyTjB_FdvrEYlWhWHwCip9jzN83D8_F-PpcV1dltlaFeN_d3UDiHQkx2gtLvrM4EiQgbsr0XxjivDQvhAshlUoJZkOJQQ2l2SDYqjKgf0lPTAd8IPtSC5uOLh8jf6I2B2v5hGDrwtXC_qkwsGvlayDvO4uf4y0]--></g></svg>