<svg xmlns="http://www.w3.org/2000/svg" xmlns:xlink="http://www.w3.org/1999/xlink" contentStyleType="text/css" data-diagram-type="CLASS" height="855px" preserveAspectRatio="none" style="width:485px;height:855px;background:#FFFFFF;" version="1.1" viewBox="0 0 485 855" width="485px" zoomAndPan="magnify"><defs/><g><!--class User--><g class="entity" data-entity="User" data-source-line="1" data-uid="ent0002" id="entity_User"><rect fill="#F1F1F1" height="96.8906" rx="2.5" ry="2.5" style="stroke:#181818;stroke-width:0.5;" width="115.0586" x="38.65" y="403.67"/><ellipse cx="76.6668" cy="419.67" fill="#ADD1B2" rx="11" ry="11" style="stroke:#181818;stroke-width:1;"/><path d="M79.6355,425.3106 Q79.0574,425.6075 78.4168,425.7481 Q77.7762,425.9044 77.073,425.9044 Q74.573,425.9044 73.2449,424.2637 Q71.9324,422.6075 71.9324,419.4825 Q71.9324,416.3575 73.2449,414.7012 Q74.573,413.045 77.073,413.045 Q77.7762,413.045 78.4168,413.2012 Q79.073,413.3575 79.6355,413.6544 L79.6355,416.3731 Q79.0105,415.795 78.4168,415.5294 Q77.823,415.2481 77.198,415.2481 Q75.8543,415.2481 75.1668,416.3262 Q74.4793,417.3887 74.4793,419.4825 Q74.4793,421.5762 75.1668,422.6544 Q75.8543,423.7169 77.198,423.7169 Q77.823,423.7169 78.4168,423.4512 Q79.0105,423.17 79.6355,422.5919 L79.6355,425.3106 Z " fill="#000000"/><text fill="#000000" font-family="sans-serif" font-size="14" lengthAdjust="spacing" textLength="31.9102" x="95.7816" y="424.5167">User</text><line style="stroke:#181818;stroke-width:0.5;" x1="39.65" x2="152.7086" y1="435.67" y2="435.67"/><ellipse cx="49.65" cy="449.3184" fill="none" rx="3" ry="3" style="stroke:#038048;stroke-width:1;"/><text fill="#000000" font-family="sans-serif" font-size="14" lengthAdjust="spacing" textLength="40.1953" x="58.65" y="452.6651">id: int</text><ellipse cx="49.65" cy="465.6153" fill="none" rx="3" ry="3" style="stroke:#038048;stroke-width:1;"/><text fill="#000000" font-family="sans-serif" font-size="14" lengthAdjust="spacing" textLength="89.0586" x="58.65" y="468.962">name: string</text><ellipse cx="49.65" cy="481.9122" fill="none" rx="3" ry="3" style="stroke:#038048;stroke-width:1;"/><text fill="#000000" font-family="sans-serif" font-size="14" lengthAdjust="spacing" textLength="87.9648" x="58.65" y="485.2589">email: string</text><line style="stroke:#181818;stroke-width:0.5;" x1="39.65" x2="152.7086" y1="492.5606" y2="492.5606"/></g><!--class Sale--><g class="entity" data-entity="Sale" data-source-line="7" data-uid="ent0003" id="entity_Sale"><rect fill="#F1F1F1" height="129.4844" rx="2.5" ry="2.5" style="stroke:#181818;stroke-width:0.5;" width="188.3125" x="144.03" y="197.19"/><ellipse cx="218.9519" cy="213.19" fill="#ADD1B2" rx="11" ry="11" style="stroke:#181818;stroke-width:1;"/><path d="M221.9206,218.8306 Q221.3425,219.1275 220.7019,219.2681 Q220.0613,219.4244 219.3581,219.4244 Q216.8581,219.4244 215.53,217.7837 Q214.2175,216.1275 214.2175,213.0025 Q214.2175,209.8775 215.53,208.2212 Q216.8581,206.565 219.3581,206.565 Q220.0613,206.565 220.7019,206.7212 Q221.3581,206.8775 221.9206,207.1744 L221.9206,209.8931 Q221.2956,209.315 220.7019,209.0494 Q220.1081,208.7681 219.4831,208.7681 Q218.1394,208.7681 217.4519,209.8462 Q216.7644,210.9087 216.7644,213.0025 Q216.7644,215.0962 217.4519,216.1744 Q218.1394,217.2369 219.4831,217.2369 Q220.1081,217.2369 220.7019,216.9712 Q221.2956,216.69 221.9206,216.1119 L221.9206,218.8306 Z " fill="#000000"/><text fill="#000000" font-family="sans-serif" font-size="14" lengthAdjust="spacing" textLength="29.9688" x="239.4519" y="218.0367">Sale</text><line style="stroke:#181818;stroke-width:0.5;" x1="145.03" x2="331.3425" y1="229.19" y2="229.19"/><ellipse cx="155.03" cy="242.8384" fill="none" rx="3" ry="3" style="stroke:#038048;stroke-width:1;"/><text fill="#000000" font-family="sans-serif" font-size="14" lengthAdjust="spacing" textLength="40.1953" x="164.03" y="246.1851">id: int</text><ellipse cx="155.03" cy="259.1353" fill="none" rx="3" ry="3" style="stroke:#038048;stroke-width:1;"/><text fill="#000000" font-family="sans-serif" font-size="14" lengthAdjust="spacing" textLength="74.1973" x="164.03" y="262.482">date: Date</text><ellipse cx="155.03" cy="275.4322" fill="none" rx="3" ry="3" style="stroke:#038048;stroke-width:1;"/><text fill="#000000" font-family="sans-serif" font-size="14" lengthAdjust="spacing" textLength="162.3125" x="164.03" y="278.7789">items : List&lt;SaleItem&gt;</text><ellipse cx="155.03" cy="291.7291" fill="none" rx="3" ry="3" style="stroke:#038048;stroke-width:1;"/><text fill="#000000" font-family="sans-serif" font-size="14" lengthAdjust="spacing" textLength="127.6475" x="164.03" y="295.0757">totalAmount: float</text><ellipse cx="155.03" cy="308.0259" fill="none" rx="3" ry="3" style="stroke:#038048;stroke-width:1;"/><text fill="#000000" font-family="sans-serif" font-size="14" lengthAdjust="spacing" textLength="130.5732" x="164.03" y="311.3726">processedBy: User</text><line style="stroke:#181818;stroke-width:0.5;" x1="145.03" x2="331.3425" y1="318.6744" y2="318.6744"/></g><!--class Product--><g class="entity" data-entity="Product" data-source-line="15" data-uid="ent0004" id="entity_Product"><rect fill="#F1F1F1" height="129.4844" rx="2.5" ry="2.5" style="stroke:#181818;stroke-width:0.5;" width="262.6328" x="215.87" y="561.56"/><ellipse cx="316.0814" cy="577.56" fill="#ADD1B2" rx="11" ry="11" style="stroke:#181818;stroke-width:1;"/><path d="M319.0502,583.2006 Q318.4721,583.4975 317.8314,583.6381 Q317.1908,583.7944 316.4877,583.7944 Q313.9877,583.7944 312.6596,582.1538 Q311.3471,580.4975 311.3471,577.3725 Q311.3471,574.2475 312.6596,572.5913 Q313.9877,570.935 316.4877,570.935 Q317.1908,570.935 317.8314,571.0913 Q318.4877,571.2475 319.0502,571.5444 L319.0502,574.2631 Q318.4252,573.685 317.8314,573.4194 Q317.2377,573.1381 316.6127,573.1381 Q315.2689,573.1381 314.5814,574.2163 Q313.8939,575.2788 313.8939,577.3725 Q313.8939,579.4663 314.5814,580.5444 Q315.2689,581.6069 316.6127,581.6069 Q317.2377,581.6069 317.8314,581.3413 Q318.4252,581.06 319.0502,580.4819 L319.0502,583.2006 Z " fill="#000000"/><text fill="#000000" font-family="sans-serif" font-size="14" lengthAdjust="spacing" textLength="53.71" x="336.5814" y="582.4067">Product</text><line style="stroke:#181818;stroke-width:0.5;" x1="216.87" x2="477.5028" y1="593.56" y2="593.56"/><ellipse cx="226.87" cy="607.2084" fill="none" rx="3" ry="3" style="stroke:#038048;stroke-width:1;"/><text fill="#000000" font-family="sans-serif" font-size="14" lengthAdjust="spacing" textLength="40.1953" x="235.87" y="610.5551">id: int</text><ellipse cx="226.87" cy="623.5053" fill="none" rx="3" ry="3" style="stroke:#038048;stroke-width:1;"/><text fill="#000000" font-family="sans-serif" font-size="14" lengthAdjust="spacing" textLength="89.0586" x="235.87" y="626.852">name: string</text><ellipse cx="226.87" cy="639.8022" fill="none" rx="3" ry="3" style="stroke:#038048;stroke-width:1;"/><text fill="#000000" font-family="sans-serif" font-size="14" lengthAdjust="spacing" textLength="75.4619" x="235.87" y="643.1489">price: float</text><ellipse cx="226.87" cy="656.0991" fill="none" rx="3" ry="3" style="stroke:#038048;stroke-width:1;"/><text fill="#000000" font-family="sans-serif" font-size="14" lengthAdjust="spacing" textLength="236.6328" x="235.87" y="659.4457">category: List&lt;ProductCategory&gt;</text><ellipse cx="226.87" cy="672.3959" fill="none" rx="3" ry="3" style="stroke:#038048;stroke-width:1;"/><text fill="#000000" font-family="sans-serif" font-size="14" lengthAdjust="spacing" textLength="125.0703" x="235.87" y="675.7426">stockQuantity: int</text><line style="stroke:#181818;stroke-width:0.5;" x1="216.87" x2="477.5028" y1="683.0444" y2="683.0444"/></g><!--class ProductCategory--><g class="entity" data-entity="ProductCategory" data-source-line="23" data-uid="ent0005" id="entity_ProductCategory"><rect fill="#F1F1F1" height="80.5938" rx="2.5" ry="2.5" style="stroke:#181818;stroke-width:0.5;" width="149.6602" x="272.35" y="768.05"/><ellipse cx="287.35" cy="784.05" fill="#ADD1B2" rx="11" ry="11" style="stroke:#181818;stroke-width:1;"/><path d="M290.3187,789.6906 Q289.7406,789.9875 289.1,790.1281 Q288.4594,790.2844 287.7562,790.2844 Q285.2562,790.2844 283.9281,788.6438 Q282.6156,786.9875 282.6156,783.8625 Q282.6156,780.7375 283.9281,779.0813 Q285.2562,777.425 287.7562,777.425 Q288.4594,777.425 289.1,777.5813 Q289.7562,777.7375 290.3187,778.0344 L290.3187,780.7531 Q289.6937,780.175 289.1,779.9094 Q288.5062,779.6281 287.8812,779.6281 Q286.5375,779.6281 285.85,780.7063 Q285.1625,781.7688 285.1625,783.8625 Q285.1625,785.9563 285.85,787.0344 Q286.5375,788.0969 287.8812,788.0969 Q288.5062,788.0969 289.1,787.8313 Q289.6937,787.55 290.3187,786.9719 L290.3187,789.6906 Z " fill="#000000"/><text fill="#000000" font-family="sans-serif" font-size="14" lengthAdjust="spacing" textLength="117.6602" x="301.35" y="788.8967">ProductCategory</text><line style="stroke:#181818;stroke-width:0.5;" x1="273.35" x2="421.0102" y1="800.05" y2="800.05"/><ellipse cx="283.35" cy="813.6984" fill="none" rx="3" ry="3" style="stroke:#038048;stroke-width:1;"/><text fill="#000000" font-family="sans-serif" font-size="14" lengthAdjust="spacing" textLength="40.1953" x="292.35" y="817.0451">id: int</text><ellipse cx="283.35" cy="829.9953" fill="none" rx="3" ry="3" style="stroke:#038048;stroke-width:1;"/><text fill="#000000" font-family="sans-serif" font-size="14" lengthAdjust="spacing" textLength="89.0586" x="292.35" y="833.342">name: string</text><line style="stroke:#181818;stroke-width:0.5;" x1="273.35" x2="421.0102" y1="840.6438" y2="840.6438"/></g><!--class SaleItem--><g class="entity" data-entity="SaleItem" data-source-line="28" data-uid="ent0006" id="entity_SaleItem"><rect fill="#F1F1F1" height="96.8906" rx="2.5" ry="2.5" style="stroke:#181818;stroke-width:0.5;" width="147.4814" x="273.44" y="403.67"/><ellipse cx="312.5796" cy="419.67" fill="#ADD1B2" rx="11" ry="11" style="stroke:#181818;stroke-width:1;"/><path d="M315.5483,425.3106 Q314.9702,425.6075 314.3296,425.7481 Q313.689,425.9044 312.9858,425.9044 Q310.4858,425.9044 309.1577,424.2637 Q307.8452,422.6075 307.8452,419.4825 Q307.8452,416.3575 309.1577,414.7012 Q310.4858,413.045 312.9858,413.045 Q313.689,413.045 314.3296,413.2012 Q314.9858,413.3575 315.5483,413.6544 L315.5483,416.3731 Q314.9233,415.795 314.3296,415.5294 Q313.7358,415.2481 313.1108,415.2481 Q311.7671,415.2481 311.0796,416.3262 Q310.3921,417.3887 310.3921,419.4825 Q310.3921,421.5762 311.0796,422.6544 Q311.7671,423.7169 313.1108,423.7169 Q313.7358,423.7169 314.3296,423.4512 Q314.9233,423.17 315.5483,422.5919 L315.5483,425.3106 Z " fill="#000000"/><text fill="#000000" font-family="sans-serif" font-size="14" lengthAdjust="spacing" textLength="61.8379" x="331.944" y="424.5167">SaleItem</text><line style="stroke:#181818;stroke-width:0.5;" x1="274.44" x2="419.9214" y1="435.67" y2="435.67"/><ellipse cx="284.44" cy="449.3184" fill="none" rx="3" ry="3" style="stroke:#038048;stroke-width:1;"/><text fill="#000000" font-family="sans-serif" font-size="14" lengthAdjust="spacing" textLength="121.4814" x="293.44" y="452.6651">product : Product</text><ellipse cx="284.44" cy="465.6153" fill="none" rx="3" ry="3" style="stroke:#038048;stroke-width:1;"/><text fill="#000000" font-family="sans-serif" font-size="14" lengthAdjust="spacing" textLength="85.7842" x="293.44" y="468.962">quantity: int</text><ellipse cx="284.44" cy="481.9122" fill="none" rx="3" ry="3" style="stroke:#038048;stroke-width:1;"/><text fill="#000000" font-family="sans-serif" font-size="14" lengthAdjust="spacing" textLength="100.748" x="293.44" y="485.2589">subTotal: float</text><line style="stroke:#181818;stroke-width:0.5;" x1="274.44" x2="419.9214" y1="492.5606" y2="492.5606"/></g><!--class Return--><g class="entity" data-entity="Return" data-source-line="34" data-uid="ent0007" id="entity_Return"><rect fill="#F1F1F1" height="113.1875" rx="2.5" ry="2.5" style="stroke:#181818;stroke-width:0.5;" width="188.3125" x="144.03" y="7"/><ellipse cx="210.2702" cy="23" fill="#ADD1B2" rx="11" ry="11" style="stroke:#181818;stroke-width:1;"/><path d="M213.239,28.6406 Q212.6609,28.9375 212.0202,29.0781 Q211.3796,29.2344 210.6765,29.2344 Q208.1765,29.2344 206.8484,27.5938 Q205.5359,25.9375 205.5359,22.8125 Q205.5359,19.6875 206.8484,18.0313 Q208.1765,16.375 210.6765,16.375 Q211.3796,16.375 212.0202,16.5313 Q212.6765,16.6875 213.239,16.9844 L213.239,19.7031 Q212.614,19.125 212.0202,18.8594 Q211.4265,18.5781 210.8015,18.5781 Q209.4577,18.5781 208.7702,19.6563 Q208.0827,20.7188 208.0827,22.8125 Q208.0827,24.9063 208.7702,25.9844 Q209.4577,27.0469 210.8015,27.0469 Q211.4265,27.0469 212.0202,26.7813 Q212.614,26.5 213.239,25.9219 L213.239,28.6406 Z " fill="#000000"/><text fill="#000000" font-family="sans-serif" font-size="14" lengthAdjust="spacing" textLength="47.332" x="230.7702" y="27.8467">Return</text><line style="stroke:#181818;stroke-width:0.5;" x1="145.03" x2="331.3425" y1="39" y2="39"/><ellipse cx="155.03" cy="52.6484" fill="none" rx="3" ry="3" style="stroke:#038048;stroke-width:1;"/><text fill="#000000" font-family="sans-serif" font-size="14" lengthAdjust="spacing" textLength="40.1953" x="164.03" y="55.9951">id: int</text><ellipse cx="155.03" cy="68.9453" fill="none" rx="3" ry="3" style="stroke:#038048;stroke-width:1;"/><text fill="#000000" font-family="sans-serif" font-size="14" lengthAdjust="spacing" textLength="74.1973" x="164.03" y="72.292">date: Date</text><ellipse cx="155.03" cy="85.2422" fill="none" rx="3" ry="3" style="stroke:#038048;stroke-width:1;"/><text fill="#000000" font-family="sans-serif" font-size="14" lengthAdjust="spacing" textLength="162.3125" x="164.03" y="88.5889">items : List&lt;SaleItem&gt;</text><ellipse cx="155.03" cy="101.5391" fill="none" rx="3" ry="3" style="stroke:#038048;stroke-width:1;"/><text fill="#000000" font-family="sans-serif" font-size="14" lengthAdjust="spacing" textLength="67.5117" x="164.03" y="104.8857">sale: Sale</text><line style="stroke:#181818;stroke-width:0.5;" x1="145.03" x2="331.3425" y1="112.1875" y2="112.1875"/></g><!--reverse link Sale to SaleItem--><g class="link" data-entity-1="Sale" data-entity-2="SaleItem" data-source-line="41" data-uid="lnk8" id="link_Sale_SaleItem"><path codeLine="41" d="M281.4051,337.5536 C295.8351,362.4636 306.06,380.11 319.43,403.21" fill="none" id="Sale-backto-SaleItem" style="stroke:#181818;stroke-width:1;"/><polygon fill="none" points="275.39,327.17,274.9363,334.3668,281.4051,337.5536,281.8587,330.3568,275.39,327.17" style="stroke:#181818;stroke-width:1;"/><text fill="#000000" font-family="sans-serif" font-size="13" lengthAdjust="spacing" textLength="8.271" x="270.8281" y="346.7448">1</text><text fill="#000000" font-family="sans-serif" font-size="13" lengthAdjust="spacing" textLength="6.5" x="309.3315" y="392.7064">*</text></g><!--link SaleItem to Product--><g class="link" data-entity-1="SaleItem" data-entity-2="Product" data-source-line="42" data-uid="lnk9" id="link_SaleItem_Product"><path codeLine="42" d="M347.18,500.62 C347.18,519.34 347.18,535.12 347.18,555.19" fill="none" id="SaleItem-to-Product" style="stroke:#181818;stroke-width:1;"/><polygon fill="#181818" points="347.18,561.19,351.18,552.19,347.18,556.19,343.18,552.19,347.18,561.19" style="stroke:#181818;stroke-width:1;"/><text fill="#000000" font-family="sans-serif" font-size="13" lengthAdjust="spacing" textLength="8.271" x="338.6365" y="520.5719">1</text><text fill="#000000" font-family="sans-serif" font-size="13" lengthAdjust="spacing" textLength="8.271" x="338.7566" y="550.3222">1</text></g><!--link Sale to User--><g class="link" data-entity-1="Sale" data-entity-2="User" data-source-line="43" data-uid="lnk10" id="link_Sale_User"><path codeLine="43" d="M189.71,327.17 C170.91,352.08 153.3739,375.3205 135.9439,398.4205" fill="none" id="Sale-to-User" style="stroke:#181818;stroke-width:1;"/><polygon fill="#181818" points="132.33,403.21,140.9439,398.435,135.3416,399.2187,134.5579,393.6164,132.33,403.21" style="stroke:#181818;stroke-width:1;"/><text fill="#000000" font-family="sans-serif" font-size="13" lengthAdjust="spacing" textLength="83.1035" x="168.18" y="369.7369">processedBy</text><text fill="#000000" font-family="sans-serif" font-size="13" lengthAdjust="spacing" textLength="8.271" x="176.3124" y="346.7448">1</text><text fill="#000000" font-family="sans-serif" font-size="13" lengthAdjust="spacing" textLength="8.271" x="128.6685" y="392.7064">1</text></g><!--link Return to Sale--><g class="link" data-entity-1="Return" data-entity-2="Sale" data-source-line="45" data-uid="lnk11" id="link_Return_Sale"><path codeLine="45" d="M238.18,120.59 C238.18,144.39 238.18,166.28 238.18,190.89" fill="none" id="Return-to-Sale" style="stroke:#181818;stroke-width:1;"/><polygon fill="#181818" points="238.18,196.89,242.18,187.89,238.18,191.89,234.18,187.89,238.18,196.89" style="stroke:#181818;stroke-width:1;"/><text fill="#000000" font-family="sans-serif" font-size="13" lengthAdjust="spacing" textLength="76.4194" x="239.18" y="163.2569">originalSale</text><text fill="#000000" font-family="sans-serif" font-size="13" lengthAdjust="spacing" textLength="8.271" x="229.7324" y="140.122">1</text><text fill="#000000" font-family="sans-serif" font-size="13" lengthAdjust="spacing" textLength="8.271" x="229.7566" y="186.0299">1</text></g><!--reverse link Return to SaleItem--><g class="link" data-entity-1="Return" data-entity-2="SaleItem" data-source-line="46" data-uid="lnk12" id="link_Return_SaleItem"><path codeLine="46" d="M312.6056,129.2611 C332.4256,150.7511 342.72,168.3 350.18,197.19 C368.26,267.2 361.94,351.72 355.07,403.43" fill="none" id="Return-backto-SaleItem" style="stroke:#181818;stroke-width:1;"/><polygon fill="none" points="304.47,120.44,305.5974,127.5624,312.6056,129.2611,311.4782,122.1387,304.47,120.44" style="stroke:#181818;stroke-width:1;"/><text fill="#000000" font-family="sans-serif" font-size="13" lengthAdjust="spacing" textLength="92.8789" x="362.18" y="266.4969">returnedItems</text><text fill="#000000" font-family="sans-serif" font-size="13" lengthAdjust="spacing" textLength="8.271" x="304.0773" y="140.3572">1</text><text fill="#000000" font-family="sans-serif" font-size="13" lengthAdjust="spacing" textLength="6.5" x="349.7927" y="392.6052">*</text></g><!--link Return to User--><g class="link" data-entity-1="Return" data-entity-2="User" data-source-line="47" data-uid="lnk13" id="link_Return_User"><path codeLine="47" d="M143.71,103.57 C104.57,125 63.22,155.79 41.18,197.19 C6,263.28 36.7757,345.1204 64.7257,398.2304" fill="none" id="Return-to-User" style="stroke:#181818;stroke-width:1;"/><polygon fill="#181818" points="67.52,403.54,66.8683,393.7127,65.1914,399.1153,59.7888,397.4384,67.52,403.54" style="stroke:#181818;stroke-width:1;"/><text fill="#000000" font-family="sans-serif" font-size="13" lengthAdjust="spacing" textLength="83.1035" x="42.18" y="266.4969">processedBy</text><text fill="#000000" font-family="sans-serif" font-size="13" lengthAdjust="spacing" textLength="8.271" x="127.8735" y="103.2301">1</text><text fill="#000000" font-family="sans-serif" font-size="13" lengthAdjust="spacing" textLength="8.271" x="54.9463" y="392.7306">1</text></g><!--link Product to ProductCategory--><g class="link" data-entity-1="Product" data-entity-2="ProductCategory" data-source-line="49" data-uid="lnk14" id="link_Product_ProductCategory"><path codeLine="49" d="M347.18,691.54 C347.18,716.99 347.18,745.44 347.18,767.77" fill="none" id="Product-ProductCategory" style="stroke:#181818;stroke-width:1;"/><text fill="#000000" font-family="sans-serif" font-size="13" lengthAdjust="spacing" textLength="68.1421" x="348.18" y="734.1169">categories</text><text fill="#000000" font-family="sans-serif" font-size="13" lengthAdjust="spacing" textLength="6.5" x="340.8957" y="711.1148">*</text><text fill="#000000" font-family="sans-serif" font-size="13" lengthAdjust="spacing" textLength="6.5" x="340.7245" y="756.8852">*</text></g><!--SRC=[dPAxJiKm38RtF8NL4TI1DK97uh8WCN1zW926AY9DIkmE5UBTYNEIqbEEG69fwzllhxQrKuZmZ2R2Xm0ujPq4wua_lHgC1AHeVS-s6PHrY-DJ29rh7vKpFsexHQdsEZrpWCo08E7M8frp_arox3X2WPIx6CBaISAh2ofNZp5eWsYworbcjkzkTp5qawO_OSTejLb9weJIXpWNY29pLRoP1Idej_j9UR8qxuMtRMl-x-qFHiE_kayV2xgiQknyF-Z75DFB4m-biYzY3uQcwFyzQKo6p4GicPVMd3KGsXQQasP15GipHzjsbzyLU2chWNmu4bOB4wA0hjDodOGGRM-zSfbYbRQ5IAanHqt79XwJFDQv7WTh5SdjuYIKIx06lm00]--></g></svg>